<svg class="main-svg" xmlns="http://www.w3.org/2000/svg" xmlns:xlink="http://www.w3.org/1999/xlink" width="2400" height="1300" style="" viewBox="0 0 1200 650"><rect x="0" y="0" width="1200" height="650" style="fill: rgb(255, 255, 255); fill-opacity: 1;"/><defs id="defs-8ad689"><g class="clips"><clipPath id="clip8ad689xyplot" class="plotclip"><rect width="1070" height="470"/></clipPath><clipPath class="axesclip" id="clip8ad689x"><rect x="80" y="0" width="1070" height="650"/></clipPath><clipPath class="axesclip" id="clip8ad689y"><rect x="0" y="100" width="1200" height="470"/></clipPath><clipPath class="axesclip" id="clip8ad689xy"><rect x="80" y="100" width="1070" height="470"/></clipPath></g><g class="gradients"/><g class="patterns"/></defs><g class="bglayer"/><g class="layer-below"><g class="imagelayer"/><g class="shapelayer"/></g><g class="cartesianlayer"><g class="subplot xy"><g class="layer-subplot"><g class="shapelayer"/><g class="imagelayer"/></g><g class="minor-gridlayer"><g class="x"/><g class="y"/></g><g class="gridlayer"><g class="x"><path class="xgrid crisp" transform="translate(166.82999999999998,0)" d="M0,100v470" style="stroke: rgb(228, 232, 235); stroke-opacity: 1; stroke-width: 1px;"/><path class="xgrid crisp" transform="translate(320.64,0)" d="M0,100v470" style="stroke: rgb(228, 232, 235); stroke-opacity: 1; stroke-width: 1px;"/><path class="xgrid crisp" transform="translate(471.97,0)" d="M0,100v470" style="stroke: rgb(228, 232, 235); stroke-opacity: 1; stroke-width: 1px;"/><path class="xgrid crisp" transform="translate(623.3,0)" d="M0,100v470" style="stroke: rgb(228, 232, 235); stroke-opacity: 1; stroke-width: 1px;"/><path class="xgrid crisp" transform="translate(769.67,0)" d="M0,100v470" style="stroke: rgb(228, 232, 235); stroke-opacity: 1; stroke-width: 1px;"/><path class="xgrid crisp" transform="translate(921,0)" d="M0,100v470" style="stroke: rgb(228, 232, 235); stroke-opacity: 1; stroke-width: 1px;"/><path class="xgrid crisp" transform="translate(1072.33,0)" d="M0,100v470" style="stroke: rgb(228, 232, 235); stroke-opacity: 1; stroke-width: 1px;"/></g><g class="y"><path class="ygrid crisp" transform="translate(0,488.33)" d="M80,0h1070" style="stroke: rgb(228, 232, 235); stroke-opacity: 1; stroke-width: 1px;"/><path class="ygrid crisp" transform="translate(0,406.66)" d="M80,0h1070" style="stroke: rgb(228, 232, 235); stroke-opacity: 1; stroke-width: 1px;"/><path class="ygrid crisp" transform="translate(0,324.99)" d="M80,0h1070" style="stroke: rgb(228, 232, 235); stroke-opacity: 1; stroke-width: 1px;"/><path class="ygrid crisp" transform="translate(0,243.32)" d="M80,0h1070" style="stroke: rgb(228, 232, 235); stroke-opacity: 1; stroke-width: 1px;"/><path class="ygrid crisp" transform="translate(0,161.65)" d="M80,0h1070" style="stroke: rgb(228, 232, 235); stroke-opacity: 1; stroke-width: 1px;"/></g></g><g class="zerolinelayer"><path class="yzl zl crisp" transform="translate(0,570)" d="M80,0h1070" style="stroke: rgb(255, 255, 255); stroke-opacity: 1; stroke-width: 2px;"/></g><g class="layer-between"><g class="shapelayer"/><g class="imagelayer"/></g><path class="xlines-below"/><path class="ylines-below"/><g class="overlines-below"/><g class="xaxislayer-below"/><g class="yaxislayer-below"/><g class="overaxes-below"/><g class="overplot"><g class="xy" transform="translate(80,100)" clip-path="url(#clip8ad689xyplot)"><g class="scatterlayer mlayer"><g class="trace scatter trace8b5654" style="stroke-miterlimit: 2;"><g class="fills"><g><path class="js-fill" d="M1034.5,470L0,470L0,469.84Q1.22,469.74 2.48,469.67C6.45,469.46 23.32,468.9 27.29,468.69C28.55,468.62 28.94,468.58 29.77,468.53C30.6,468.48 31.42,468.42 32.25,468.37C33.08,468.31 33.76,468.25 34.73,468.2C36.1,468.13 38.47,468.91 39.69,468.04C41.13,467.01 41.02,462.61 42.17,461.51C42.87,460.84 43.92,461.3 44.65,460.69C45.68,459.83 46.42,458.04 47.14,456.12C48.21,453.25 48.34,447.08 49.62,444.85C50.31,443.64 51.32,443.47 52.1,442.56C53,441.51 53.7,439.91 54.58,438.8C55.37,437.81 56.19,436.92 57.06,436.19C57.85,435.53 58.68,434.94 59.54,434.56C60.34,434.2 61.21,434.22 62.02,433.9C62.87,433.57 63.67,433.03 64.5,432.6C65.33,432.16 66.19,431.87 66.98,431.29C67.86,430.65 68.59,429.51 69.46,428.84C70.25,428.23 71.15,428 71.94,427.37C72.82,426.67 73.53,425.43 74.42,424.76C75.2,424.17 76.08,423.86 76.91,423.45C77.73,423.05 78.55,422.58 79.39,422.31C80.2,422.05 81.07,422.15 81.87,421.82C82.73,421.47 83.52,420.7 84.35,420.18C85.17,419.67 86.03,419.28 86.83,418.71C87.68,418.1 88.44,417.12 89.31,416.59C90.1,416.12 90.96,415.88 91.79,415.61C92.61,415.34 93.45,415.2 94.27,414.96C95.1,414.71 95.92,414.39 96.75,414.14C97.57,413.9 98.4,413.68 99.23,413.49C100.05,413.3 100.96,413.45 101.71,412.99C102.65,412.42 103.3,410.74 104.19,409.89C104.97,409.15 105.85,408.69 106.68,408.09C107.51,407.49 108.36,407 109.16,406.3C110.02,405.54 110.73,404.18 111.64,403.68C112.41,403.26 113.3,403.4 114.12,403.19C114.95,402.97 115.85,402.92 116.6,402.38C117.54,401.71 118.14,399.82 119.08,399.11C119.84,398.54 120.74,398.51 121.56,398.13C122.4,397.74 123.2,397.18 124.04,396.82C124.85,396.48 125.83,396.89 126.52,396.01C128.88,393.02 127.37,371.55 129,365.95C129.68,363.59 130.58,362.6 131.48,361.22C132.25,360.03 133.21,359.38 133.96,358.11C134.92,356.48 135.49,353.73 136.44,352.07C137.19,350.76 138.02,349.65 138.93,348.8C139.7,348.08 140.63,347.85 141.41,347.17C142.29,346.41 143.02,345.18 143.89,344.39C144.68,343.68 145.51,343.04 146.37,342.6C147.17,342.19 148.08,342.27 148.85,341.78C149.75,341.21 150.54,340.14 151.33,339.17C152.2,338.1 153.12,337.29 153.81,335.57C155.12,332.32 155.37,324.83 156.29,320.22C157.05,316.39 157.72,312.46 158.77,309.77C159.49,307.93 160.32,306.54 161.25,305.36C162.01,304.4 162.85,303.65 163.73,303.07C164.52,302.54 165.51,302.71 166.21,301.93C167.38,300.64 167.73,296.7 168.7,294.74C169.44,293.23 170.27,291.98 171.18,290.98C171.95,290.15 172.89,289.84 173.66,289.02C174.56,288.06 175.24,286.39 176.14,285.43C176.91,284.61 177.85,284.28 178.62,283.47C179.52,282.53 180.17,280.85 181.1,280.04C181.86,279.38 182.8,279.32 183.58,278.73C184.47,278.06 185.2,276.9 186.06,276.12C186.86,275.39 187.68,274.66 188.54,274.16C189.33,273.7 190.24,273.69 191.02,273.18C191.91,272.6 192.6,271.25 193.5,270.73C194.27,270.29 195.19,270.46 195.98,270.07C196.86,269.63 197.59,268.55 198.47,268.11C199.26,267.72 200.13,267.7 200.95,267.46C201.78,267.21 202.6,266.86 203.43,266.64C204.25,266.42 205.09,266.36 205.91,266.15C206.74,265.93 207.59,265.73 208.39,265.34C209.25,264.93 210.18,264.69 210.87,263.7C212.18,261.84 212.06,255.33 213.35,253.41C214.04,252.38 214.98,252.12 215.83,251.62C216.63,251.15 217.46,250.71 218.31,250.47C219.12,250.24 220.01,250.48 220.79,250.15C221.67,249.78 222.41,248.72 223.27,248.19C224.07,247.7 224.94,247.51 225.75,247.04C226.6,246.54 227.39,245.75 228.24,245.25C229.05,244.78 229.9,244.53 230.72,244.1C231.56,243.66 232.37,243.09 233.2,242.63C234.02,242.17 234.83,241.66 235.68,241.33C236.49,241.01 237.33,240.83 238.16,240.67C238.98,240.51 239.84,240.63 240.64,240.35C241.5,240.05 242.27,239.24 243.12,238.88C243.92,238.54 244.77,238.41 245.6,238.22C246.42,238.03 247.25,237.89 248.08,237.73C248.91,237.57 249.76,237.55 250.56,237.24C251.42,236.91 252.18,236.07 253.04,235.77C253.84,235.49 254.7,235.64 255.52,235.45C256.36,235.26 257.17,234.85 258,234.63C258.82,234.41 259.66,234.28 260.49,234.14C261.32,234 262.15,234 262.97,233.81C263.81,233.62 264.62,233.22 265.45,233C266.27,232.79 267.1,232.67 267.93,232.51C268.76,232.35 269.58,232.13 270.41,232.02C271.23,231.91 272.06,231.91 272.89,231.85C273.72,231.8 274.55,231.8 275.37,231.69C276.2,231.58 277.04,231.46 277.85,231.2C278.69,230.93 279.5,230.42 280.33,230.06C281.15,229.71 282,229.48 282.81,229.08C283.65,228.67 284.46,228.1 285.29,227.61C286.12,227.12 286.91,226.47 287.77,226.14C288.57,225.83 289.47,226 290.26,225.65C291.13,225.27 291.88,224.32 292.74,223.85C293.54,223.41 294.38,223.06 295.22,222.87C296.03,222.69 296.89,222.92 297.7,222.71C298.55,222.49 299.35,221.94 300.18,221.56C301.01,221.18 301.82,220.72 302.66,220.42C303.47,220.13 304.34,220.11 305.14,219.77C305.99,219.41 306.77,218.66 307.62,218.3C308.42,217.96 309.27,217.83 310.1,217.64C310.92,217.45 311.75,217.31 312.58,217.15C313.41,216.99 314.24,216.85 315.06,216.66C315.89,216.47 316.71,216.2 317.54,216.01C318.37,215.82 319.21,215.74 320.03,215.52C320.86,215.3 321.68,214.92 322.51,214.7C323.33,214.48 324.16,214.37 324.99,214.21C325.82,214.05 326.65,213.93 327.47,213.72C328.3,213.5 329.12,213.18 329.95,212.91C330.78,212.64 331.61,212.39 332.43,212.09C333.26,211.79 334.08,211.41 334.91,211.11C335.73,210.81 336.55,210.48 337.39,210.29C338.21,210.1 339.05,210.1 339.87,209.97C340.7,209.83 341.54,209.74 342.35,209.48C343.19,209.21 343.99,208.6 344.83,208.33C345.64,208.07 346.5,208.12 347.31,207.84C348.16,207.54 348.95,206.92 349.79,206.54C350.61,206.17 351.44,205.81 352.28,205.56C353.1,205.32 353.94,205.31 354.76,205.07C355.6,204.82 356.4,204.31 357.24,204.09C358.05,203.88 358.9,203.9 359.72,203.76C360.55,203.62 361.38,203.51 362.2,203.27C363.04,203.02 363.85,202.56 364.68,202.29C365.5,202.02 366.34,201.88 367.16,201.64C367.99,201.39 368.81,201.07 369.64,200.82C370.46,200.58 371.29,200.31 372.12,200.17C372.94,200.04 373.78,200.11 374.6,200C375.43,199.89 376.26,199.7 377.08,199.51C377.91,199.32 378.74,199.13 379.56,198.86C380.4,198.59 381.25,198.32 382.05,197.88C382.91,197.41 383.67,196.52 384.53,196.08C385.33,195.67 386.17,195.46 387.01,195.27C387.83,195.08 388.66,195.02 389.49,194.94C390.32,194.86 391.14,194.83 391.97,194.78C392.8,194.72 393.66,194.88 394.45,194.61C395.32,194.32 396.09,193.48 396.93,192.98C397.75,192.5 398.6,192.17 399.41,191.67C400.26,191.15 401.03,190.35 401.89,189.88C402.69,189.44 403.55,189.25 404.37,188.9C405.2,188.54 406.02,188.13 406.85,187.75C407.68,187.37 408.49,186.91 409.33,186.61C410.15,186.32 410.99,186.11 411.82,185.95C412.64,185.79 413.33,185.77 414.3,185.63C415.67,185.43 417.92,185.26 419.26,184.81C420.26,184.47 420.9,183.86 421.74,183.5C422.55,183.16 423.39,182.96 424.22,182.69C425.05,182.42 425.86,182.06 426.7,181.87C427.52,181.68 428.35,181.65 429.18,181.54C430.01,181.43 430.85,181.45 431.66,181.22C432.51,180.98 433.31,180.45 434.14,180.07C434.97,179.69 435.83,179.46 436.62,178.93C437.5,178.35 438.24,177.31 439.1,176.64C439.9,176.01 440.73,175.39 441.59,175.01C442.39,174.65 443.25,174.63 444.07,174.36C444.9,174.09 445.72,173.71 446.55,173.38C447.38,173.05 448.22,172.8 449.03,172.4C449.87,171.99 450.65,171.26 451.51,170.93C452.31,170.62 453.21,170.83 453.99,170.44C454.89,169.98 455.58,168.64 456.47,168.15C457.25,167.72 458.12,167.72 458.95,167.5C459.78,167.28 460.61,167.11 461.43,166.84C462.26,166.57 463.07,166.08 463.91,165.86C464.72,165.65 465.59,165.82 466.39,165.54C467.25,165.24 468.03,164.51 468.87,164.07C469.69,163.64 470.51,163.25 471.35,162.92C472.17,162.6 473.02,162.41 473.84,162.11C474.67,161.81 475.49,161.4 476.32,161.13C477.14,160.86 477.97,160.69 478.8,160.47C479.63,160.25 480.51,160.27 481.28,159.82C482.19,159.28 482.96,158.17 483.76,157.21C484.62,156.17 485.32,154.62 486.24,153.78C487,153.08 487.86,152.64 488.72,152.31C489.52,152 490.4,152.13 491.2,151.82C492.06,151.49 492.85,150.82 493.68,150.35C494.5,149.89 495.32,149.4 496.16,149.04C496.97,148.69 497.81,148.49 498.64,148.22C499.47,147.95 500.3,147.71 501.12,147.41C501.95,147.11 502.78,146.76 503.61,146.43C504.44,146.1 505.27,145.83 506.09,145.45C506.93,145.06 507.73,144.53 508.57,144.14C509.39,143.76 510.21,143.41 511.05,143.16C511.87,142.92 512.7,142.81 513.53,142.67C514.35,142.53 515.19,142.48 516.01,142.34C516.84,142.2 517.67,142.09 518.49,141.85C519.33,141.6 520.15,141.22 520.97,140.87C521.8,140.51 522.61,140 523.45,139.73C524.26,139.47 525.1,139.38 525.93,139.24C526.75,139.1 527.58,139.02 528.41,138.91C529.24,138.8 530.06,138.67 530.89,138.59C531.72,138.51 532.55,138.53 533.38,138.42C534.21,138.31 535.04,138.14 535.86,137.93C536.69,137.71 537.52,137.42 538.34,137.12C539.17,136.82 539.98,136.33 540.82,136.14C541.63,135.96 542.48,136.1 543.3,135.97C544.13,135.83 545,135.75 545.78,135.32C546.67,134.83 547.39,133.64 548.26,133.03C549.05,132.47 549.96,132.32 550.74,131.73C551.63,131.06 552.31,129.68 553.22,129.11C553.99,128.62 554.86,128.49 555.7,128.3C556.52,128.11 557.36,128.16 558.18,127.97C559.02,127.78 559.83,127.37 560.66,127.15C561.48,126.93 562.32,126.85 563.15,126.66C563.98,126.47 564.81,126.25 565.63,126.01C566.46,125.76 567.3,125.53 568.11,125.19C568.95,124.83 569.75,124.25 570.59,123.89C571.4,123.55 572.25,123.37 573.07,123.07C573.9,122.77 574.72,122.39 575.55,122.09C576.37,121.79 577.21,121.59 578.03,121.27C578.87,120.94 579.68,120.49 580.51,120.13C581.33,119.78 582.15,119.37 582.99,119.15C583.8,118.94 584.69,119.15 585.47,118.82C586.35,118.45 587.08,117.33 587.95,116.86C588.74,116.44 589.6,116.27 590.43,116.05C591.25,115.84 592.1,115.82 592.91,115.56C593.76,115.29 594.55,114.65 595.4,114.41C596.21,114.18 597.05,114.17 597.88,114.09C598.71,114.01 599.53,113.98 600.36,113.92C601.19,113.87 602.01,113.84 602.84,113.76C603.67,113.68 604.49,113.54 605.32,113.43C606.15,113.32 606.99,113.34 607.8,113.11C608.65,112.87 609.44,112.26 610.28,111.96C611.09,111.67 611.93,111.47 612.76,111.31C613.58,111.15 614.41,111.09 615.24,110.98C616.07,110.87 616.91,110.87 617.72,110.66C618.56,110.44 619.36,109.9 620.2,109.68C621.01,109.47 621.85,109.49 622.68,109.35C623.51,109.21 624.34,109.05 625.17,108.86C626,108.67 626.82,108.37 627.65,108.21C628.47,108.05 629.3,107.99 630.13,107.88C630.96,107.77 631.79,107.69 632.61,107.55C633.44,107.41 634.12,107.2 635.09,107.06C636.46,106.86 638.69,106.86 640.05,106.57C641.03,106.36 641.7,106.03 642.53,105.76C643.36,105.49 644.17,105.1 645.01,104.94C645.83,104.78 646.67,104.91 647.49,104.78C648.32,104.64 649.14,104.26 649.97,104.12C650.79,103.99 651.62,104.04 652.45,103.96C653.28,103.88 654.11,103.74 654.94,103.63C655.77,103.52 656.59,103.42 657.42,103.31C658.25,103.2 659.07,103.09 659.9,102.98C660.73,102.87 661.41,102.73 662.38,102.65C663.75,102.54 665.98,102.65 667.34,102.49C668.31,102.38 668.99,102.16 669.82,102C670.65,101.84 671.47,101.67 672.3,101.51C673.13,101.35 673.97,101.31 674.78,101.02C675.63,100.72 676.41,99.95 677.26,99.71C678.06,99.48 678.91,99.63 679.74,99.55C680.57,99.47 681.39,99.36 682.22,99.22C683.05,99.08 683.88,98.87 684.71,98.73C685.54,98.6 686.36,98.52 687.19,98.41C688.02,98.3 688.84,98.16 689.67,98.08C690.5,98 691.34,98.13 692.15,97.92C693,97.7 693.79,97.07 694.63,96.77C695.44,96.48 696.28,96.31 697.11,96.12C697.93,95.93 698.77,95.82 699.59,95.63C700.42,95.44 701.24,95.2 702.07,94.98C702.9,94.76 703.74,94.61 704.55,94.32C705.39,94.02 706.19,93.48 707.03,93.18C707.84,92.89 708.68,92.67 709.51,92.53C710.33,92.4 711.16,92.42 711.99,92.36C712.82,92.31 713.65,92.33 714.47,92.2C715.31,92.07 716.13,91.71 716.96,91.55C717.78,91.39 718.62,91.41 719.44,91.22C720.28,91.03 721.09,90.67 721.92,90.4C722.75,90.13 723.57,89.86 724.4,89.59C725.23,89.32 726.04,88.93 726.88,88.77C727.7,88.61 728.53,88.69 729.36,88.61C730.19,88.53 731.03,88.49 731.84,88.28C732.68,88.06 733.48,87.49 734.32,87.3C735.13,87.12 735.97,87.22 736.8,87.14C737.63,87.06 738.47,87.02 739.28,86.81C740.12,86.59 740.93,86.16 741.76,85.83C742.59,85.5 743.4,85.07 744.24,84.85C745.06,84.64 745.9,84.63 746.73,84.52C747.56,84.41 748.39,84.33 749.21,84.2C750.04,84.06 750.87,83.9 751.69,83.71C752.52,83.52 753.34,83.21 754.17,83.05C754.99,82.89 755.83,82.86 756.65,82.73C757.48,82.59 758.31,82.46 759.13,82.24C759.96,82.02 760.79,81.72 761.61,81.42C762.44,81.12 763.25,80.66 764.09,80.44C764.9,80.23 765.75,80.25 766.57,80.11C767.4,79.97 768.22,79.76 769.05,79.62C769.87,79.49 770.7,79.41 771.53,79.3C772.36,79.19 773.18,79.08 774.01,78.97C774.84,78.86 775.68,78.8 776.5,78.64C777.33,78.48 778.15,78.21 778.98,77.99C779.81,77.77 780.63,77.56 781.46,77.34C782.29,77.12 783.11,76.9 783.94,76.68C784.77,76.46 785.59,76.22 786.42,76.03C787.24,75.84 788.07,75.65 788.9,75.54C789.72,75.43 790.56,75.49 791.38,75.38C792.21,75.27 793.04,75.13 793.86,74.89C794.7,74.64 795.5,74.16 796.34,73.91C797.16,73.67 797.99,73.53 798.82,73.42C799.64,73.31 800.48,73.38 801.3,73.25C802.13,73.11 802.95,72.74 803.78,72.6C804.6,72.47 805.43,72.51 806.26,72.43C807.09,72.35 807.94,72.37 808.75,72.11C809.6,71.84 810.41,71.26 811.23,70.8C812.06,70.33 812.86,69.69 813.71,69.33C814.51,68.99 815.36,68.82 816.19,68.68C817.01,68.55 817.84,68.59 818.67,68.51C819.5,68.43 820.32,68.27 821.15,68.19C821.98,68.11 822.8,68.1 823.63,68.02C824.46,67.94 825.29,67.83 826.11,67.7C826.94,67.56 827.77,67.4 828.59,67.21C829.42,67.02 830.24,66.77 831.07,66.55C831.9,66.33 832.72,66.12 833.55,65.9C834.38,65.68 835.2,65.47 836.03,65.25C836.86,65.03 837.69,64.75 838.52,64.59C839.34,64.43 840.17,64.38 841,64.27C841.83,64.16 842.66,64.1 843.48,63.94C844.31,63.78 845.13,63.45 845.96,63.29C846.78,63.13 847.61,63.04 848.44,62.96C849.27,62.88 850.1,62.96 850.92,62.8C851.76,62.64 852.57,62.2 853.4,61.98C854.22,61.76 855.05,61.6 855.88,61.49C856.7,61.38 857.53,61.38 858.36,61.33C859.19,61.27 860.03,61.34 860.84,61.16C861.68,60.97 862.49,60.45 863.32,60.18C864.14,59.91 864.99,59.84 865.8,59.53C866.65,59.2 867.44,58.52 868.29,58.22C869.1,57.93 869.96,58.01 870.77,57.73C871.62,57.43 872.25,56.75 873.25,56.43C874.59,56 876.84,55.95 878.21,55.77C879.18,55.64 879.86,55.56 880.69,55.45C881.52,55.34 882.35,55.26 883.17,55.12C884,54.98 884.83,54.82 885.65,54.63C886.48,54.44 887.3,54.14 888.13,53.98C888.95,53.82 889.79,53.79 890.61,53.65C891.44,53.51 892.27,53.35 893.09,53.16C893.92,52.97 894.6,52.72 895.57,52.51C896.94,52.22 899.17,51.85 900.54,51.69C901.51,51.58 902.19,51.58 903.02,51.53C903.85,51.47 904.67,51.42 905.5,51.36C906.33,51.31 907.16,51.36 907.98,51.2C908.82,51.04 909.63,50.65 910.46,50.38C911.29,50.11 912.1,49.73 912.94,49.57C913.76,49.41 914.59,49.48 915.42,49.4C916.25,49.32 917.07,49.16 917.9,49.08C918.73,49 919.56,49.02 920.38,48.91C921.21,48.8 922.03,48.58 922.86,48.42C923.69,48.26 924.51,48.04 925.34,47.93C926.16,47.82 926.99,47.82 927.82,47.77C928.65,47.72 929.34,47.66 930.31,47.61C931.68,47.54 933.91,47.68 935.27,47.44C936.25,47.27 936.91,46.82 937.75,46.63C938.57,46.44 939.41,46.49 940.23,46.3C941.07,46.11 941.87,45.67 942.71,45.48C943.53,45.29 944.37,45.29 945.19,45.16C946.02,45.02 946.84,44.81 947.67,44.67C948.49,44.53 949.32,44.42 950.15,44.34C950.98,44.26 951.8,44.26 952.63,44.18C953.46,44.1 954.28,43.96 955.11,43.85C955.94,43.74 956.77,43.68 957.59,43.52C958.42,43.36 959.1,43.03 960.08,42.87C961.44,42.65 963.67,42.67 965.04,42.54C966.01,42.45 966.71,42.43 967.52,42.22C968.36,42 969.16,41.49 970,41.24C970.82,41 971.65,40.89 972.48,40.75C973.3,40.61 974.14,40.58 974.96,40.42C975.79,40.26 976.61,39.91 977.44,39.77C978.26,39.64 979.1,39.73 979.92,39.6C980.75,39.46 981.57,39.17 982.4,38.95C983.23,38.73 984.05,38.52 984.88,38.3C985.71,38.08 986.53,37.78 987.36,37.64C988.18,37.51 989.02,37.56 989.85,37.48C990.68,37.4 991.5,37.26 992.33,37.15C993.16,37.04 993.98,36.94 994.81,36.83C995.64,36.72 996.09,36.59 997.29,36.5C1000.46,36.28 1011.48,36.46 1014.65,36.34C1015.85,36.29 1016.32,36.35 1017.13,36.17C1017.97,35.98 1018.79,35.49 1019.62,35.19C1020.44,34.89 1021.28,34.68 1022.1,34.38C1022.93,34.08 1023.74,33.65 1024.58,33.4C1025.4,33.16 1026.25,33.17 1027.06,32.91C1027.9,32.64 1028.74,32.23 1029.54,31.76C1030.39,31.26 1031.15,30.38 1032.02,29.97Q1032.81,29.59 1034.5,29.31" style="fill: rgb(35, 134, 54); fill-opacity: 0.1; stroke-width: 0;"/></g></g><g class="errorbars"/><g class="lines"><path class="js-line" d="M0,469.84Q1.22,469.74 2.48,469.67C6.45,469.46 23.32,468.9 27.29,468.69C28.55,468.62 28.94,468.58 29.77,468.53C30.6,468.48 31.42,468.42 32.25,468.37C33.08,468.31 33.76,468.25 34.73,468.2C36.1,468.13 38.47,468.91 39.69,468.04C41.13,467.01 41.02,462.61 42.17,461.51C42.87,460.84 43.92,461.3 44.65,460.69C45.68,459.83 46.42,458.04 47.14,456.12C48.21,453.25 48.34,447.08 49.62,444.85C50.31,443.64 51.32,443.47 52.1,442.56C53,441.51 53.7,439.91 54.58,438.8C55.37,437.81 56.19,436.92 57.06,436.19C57.85,435.53 58.68,434.94 59.54,434.56C60.34,434.2 61.21,434.22 62.02,433.9C62.87,433.57 63.67,433.03 64.5,432.6C65.33,432.16 66.19,431.87 66.98,431.29C67.86,430.65 68.59,429.51 69.46,428.84C70.25,428.23 71.15,428 71.94,427.37C72.82,426.67 73.53,425.43 74.42,424.76C75.2,424.17 76.08,423.86 76.91,423.45C77.73,423.05 78.55,422.58 79.39,422.31C80.2,422.05 81.07,422.15 81.87,421.82C82.73,421.47 83.52,420.7 84.35,420.18C85.17,419.67 86.03,419.28 86.83,418.71C87.68,418.1 88.44,417.12 89.31,416.59C90.1,416.12 90.96,415.88 91.79,415.61C92.61,415.34 93.45,415.2 94.27,414.96C95.1,414.71 95.92,414.39 96.75,414.14C97.57,413.9 98.4,413.68 99.23,413.49C100.05,413.3 100.96,413.45 101.71,412.99C102.65,412.42 103.3,410.74 104.19,409.89C104.97,409.15 105.85,408.69 106.68,408.09C107.51,407.49 108.36,407 109.16,406.3C110.02,405.54 110.73,404.18 111.64,403.68C112.41,403.26 113.3,403.4 114.12,403.19C114.95,402.97 115.85,402.92 116.6,402.38C117.54,401.71 118.14,399.82 119.08,399.11C119.84,398.54 120.74,398.51 121.56,398.13C122.4,397.74 123.2,397.18 124.04,396.82C124.85,396.48 125.83,396.89 126.52,396.01C128.88,393.02 127.37,371.55 129,365.95C129.68,363.59 130.58,362.6 131.48,361.22C132.25,360.03 133.21,359.38 133.96,358.11C134.92,356.48 135.49,353.73 136.44,352.07C137.19,350.76 138.02,349.65 138.93,348.8C139.7,348.08 140.63,347.85 141.41,347.17C142.29,346.41 143.02,345.18 143.89,344.39C144.68,343.68 145.51,343.04 146.37,342.6C147.17,342.19 148.08,342.27 148.85,341.78C149.75,341.21 150.54,340.14 151.33,339.17C152.2,338.1 153.12,337.29 153.81,335.57C155.12,332.32 155.37,324.83 156.29,320.22C157.05,316.39 157.72,312.46 158.77,309.77C159.49,307.93 160.32,306.54 161.25,305.36C162.01,304.4 162.85,303.65 163.73,303.07C164.52,302.54 165.51,302.71 166.21,301.93C167.38,300.64 167.73,296.7 168.7,294.74C169.44,293.23 170.27,291.98 171.18,290.98C171.95,290.15 172.89,289.84 173.66,289.02C174.56,288.06 175.24,286.39 176.14,285.43C176.91,284.61 177.85,284.28 178.62,283.47C179.52,282.53 180.17,280.85 181.1,280.04C181.86,279.38 182.8,279.32 183.58,278.73C184.47,278.06 185.2,276.9 186.06,276.12C186.86,275.39 187.68,274.66 188.54,274.16C189.33,273.7 190.24,273.69 191.02,273.18C191.91,272.6 192.6,271.25 193.5,270.73C194.27,270.29 195.19,270.46 195.98,270.07C196.86,269.63 197.59,268.55 198.47,268.11C199.26,267.72 200.13,267.7 200.95,267.46C201.78,267.21 202.6,266.86 203.43,266.64C204.25,266.42 205.09,266.36 205.91,266.15C206.74,265.93 207.59,265.73 208.39,265.34C209.25,264.93 210.18,264.69 210.87,263.7C212.18,261.84 212.06,255.33 213.35,253.41C214.04,252.38 214.98,252.12 215.83,251.62C216.63,251.15 217.46,250.71 218.31,250.47C219.12,250.24 220.01,250.48 220.79,250.15C221.67,249.78 222.41,248.72 223.27,248.19C224.07,247.7 224.94,247.51 225.75,247.04C226.6,246.54 227.39,245.75 228.24,245.25C229.05,244.78 229.9,244.53 230.72,244.1C231.56,243.66 232.37,243.09 233.2,242.63C234.02,242.17 234.83,241.66 235.68,241.33C236.49,241.01 237.33,240.83 238.16,240.67C238.98,240.51 239.84,240.63 240.64,240.35C241.5,240.05 242.27,239.24 243.12,238.88C243.92,238.54 244.77,238.41 245.6,238.22C246.42,238.03 247.25,237.89 248.08,237.73C248.91,237.57 249.76,237.55 250.56,237.24C251.42,236.91 252.18,236.07 253.04,235.77C253.84,235.49 254.7,235.64 255.52,235.45C256.36,235.26 257.17,234.85 258,234.63C258.82,234.41 259.66,234.28 260.49,234.14C261.32,234 262.15,234 262.97,233.81C263.81,233.62 264.62,233.22 265.45,233C266.27,232.79 267.1,232.67 267.93,232.51C268.76,232.35 269.58,232.13 270.41,232.02C271.23,231.91 272.06,231.91 272.89,231.85C273.72,231.8 274.55,231.8 275.37,231.69C276.2,231.58 277.04,231.46 277.85,231.2C278.69,230.93 279.5,230.42 280.33,230.06C281.15,229.71 282,229.48 282.81,229.08C283.65,228.67 284.46,228.1 285.29,227.61C286.12,227.12 286.91,226.47 287.77,226.14C288.57,225.83 289.47,226 290.26,225.65C291.13,225.27 291.88,224.32 292.74,223.85C293.54,223.41 294.38,223.06 295.22,222.87C296.03,222.69 296.89,222.92 297.7,222.71C298.55,222.49 299.35,221.94 300.18,221.56C301.01,221.18 301.82,220.72 302.66,220.42C303.47,220.13 304.34,220.11 305.14,219.77C305.99,219.41 306.77,218.66 307.62,218.3C308.42,217.96 309.27,217.83 310.1,217.64C310.92,217.45 311.75,217.31 312.58,217.15C313.41,216.99 314.24,216.85 315.06,216.66C315.89,216.47 316.71,216.2 317.54,216.01C318.37,215.82 319.21,215.74 320.03,215.52C320.86,215.3 321.68,214.92 322.51,214.7C323.33,214.48 324.16,214.37 324.99,214.21C325.82,214.05 326.65,213.93 327.47,213.72C328.3,213.5 329.12,213.18 329.95,212.91C330.78,212.64 331.61,212.39 332.43,212.09C333.26,211.79 334.08,211.41 334.91,211.11C335.73,210.81 336.55,210.48 337.39,210.29C338.21,210.1 339.05,210.1 339.87,209.97C340.7,209.83 341.54,209.74 342.35,209.48C343.19,209.21 343.99,208.6 344.83,208.33C345.64,208.07 346.5,208.12 347.31,207.84C348.16,207.54 348.95,206.92 349.79,206.54C350.61,206.17 351.44,205.81 352.28,205.56C353.1,205.32 353.94,205.31 354.76,205.07C355.6,204.82 356.4,204.31 357.24,204.09C358.05,203.88 358.9,203.9 359.72,203.76C360.55,203.62 361.38,203.51 362.2,203.27C363.04,203.02 363.85,202.56 364.68,202.29C365.5,202.02 366.34,201.88 367.16,201.64C367.99,201.39 368.81,201.07 369.64,200.82C370.46,200.58 371.29,200.31 372.12,200.17C372.94,200.04 373.78,200.11 374.6,200C375.43,199.89 376.26,199.7 377.08,199.51C377.91,199.32 378.74,199.13 379.56,198.86C380.4,198.59 381.25,198.32 382.05,197.88C382.91,197.41 383.67,196.52 384.53,196.08C385.33,195.67 386.17,195.46 387.01,195.27C387.83,195.08 388.66,195.02 389.49,194.94C390.32,194.86 391.14,194.83 391.97,194.78C392.8,194.72 393.66,194.88 394.45,194.61C395.32,194.32 396.09,193.48 396.93,192.98C397.75,192.5 398.6,192.17 399.41,191.67C400.26,191.15 401.03,190.35 401.89,189.88C402.69,189.44 403.55,189.25 404.37,188.9C405.2,188.54 406.02,188.13 406.85,187.75C407.68,187.37 408.49,186.91 409.33,186.61C410.15,186.32 410.99,186.11 411.82,185.95C412.64,185.79 413.33,185.77 414.3,185.63C415.67,185.43 417.92,185.26 419.26,184.81C420.26,184.47 420.9,183.86 421.74,183.5C422.55,183.16 423.39,182.96 424.22,182.69C425.05,182.42 425.86,182.06 426.7,181.87C427.52,181.68 428.35,181.65 429.18,181.54C430.01,181.43 430.85,181.45 431.66,181.22C432.51,180.98 433.31,180.45 434.14,180.07C434.97,179.69 435.83,179.46 436.62,178.93C437.5,178.35 438.24,177.31 439.1,176.64C439.9,176.01 440.73,175.39 441.59,175.01C442.39,174.65 443.25,174.63 444.07,174.36C444.9,174.09 445.72,173.71 446.55,173.38C447.38,173.05 448.22,172.8 449.03,172.4C449.87,171.99 450.65,171.26 451.51,170.93C452.31,170.62 453.21,170.83 453.99,170.44C454.89,169.98 455.58,168.64 456.47,168.15C457.25,167.72 458.12,167.72 458.95,167.5C459.78,167.28 460.61,167.11 461.43,166.84C462.26,166.57 463.07,166.08 463.91,165.86C464.72,165.65 465.59,165.82 466.39,165.54C467.25,165.24 468.03,164.51 468.87,164.07C469.69,163.64 470.51,163.25 471.35,162.92C472.17,162.6 473.02,162.41 473.84,162.11C474.67,161.81 475.49,161.4 476.32,161.13C477.14,160.86 477.97,160.69 478.8,160.47C479.63,160.25 480.51,160.27 481.28,159.82C482.19,159.28 482.96,158.17 483.76,157.21C484.62,156.17 485.32,154.62 486.24,153.78C487,153.08 487.86,152.64 488.72,152.31C489.52,152 490.4,152.13 491.2,151.82C492.06,151.49 492.85,150.82 493.68,150.35C494.5,149.89 495.32,149.4 496.16,149.04C496.97,148.69 497.81,148.49 498.64,148.22C499.47,147.95 500.3,147.71 501.12,147.41C501.95,147.11 502.78,146.76 503.61,146.43C504.44,146.1 505.27,145.83 506.09,145.45C506.93,145.06 507.73,144.53 508.57,144.14C509.39,143.76 510.21,143.41 511.05,143.16C511.87,142.92 512.7,142.81 513.53,142.67C514.35,142.53 515.19,142.48 516.01,142.34C516.84,142.2 517.67,142.09 518.49,141.85C519.33,141.6 520.15,141.22 520.97,140.87C521.8,140.51 522.61,140 523.45,139.73C524.26,139.47 525.1,139.38 525.93,139.24C526.75,139.1 527.58,139.02 528.41,138.91C529.24,138.8 530.06,138.67 530.89,138.59C531.72,138.51 532.55,138.53 533.38,138.42C534.21,138.31 535.04,138.14 535.86,137.93C536.69,137.71 537.52,137.42 538.34,137.12C539.17,136.82 539.98,136.33 540.82,136.14C541.63,135.96 542.48,136.1 543.3,135.97C544.13,135.83 545,135.75 545.78,135.32C546.67,134.83 547.39,133.64 548.26,133.03C549.05,132.47 549.96,132.32 550.74,131.73C551.63,131.06 552.31,129.68 553.22,129.11C553.99,128.62 554.86,128.49 555.7,128.3C556.52,128.11 557.36,128.16 558.18,127.97C559.02,127.78 559.83,127.37 560.66,127.15C561.48,126.93 562.32,126.85 563.15,126.66C563.98,126.47 564.81,126.25 565.63,126.01C566.46,125.76 567.3,125.53 568.11,125.19C568.95,124.83 569.75,124.25 570.59,123.89C571.4,123.55 572.25,123.37 573.07,123.07C573.9,122.77 574.72,122.39 575.55,122.09C576.37,121.79 577.21,121.59 578.03,121.27C578.87,120.94 579.68,120.49 580.51,120.13C581.33,119.78 582.15,119.37 582.99,119.15C583.8,118.94 584.69,119.15 585.47,118.82C586.35,118.45 587.08,117.33 587.95,116.86C588.74,116.44 589.6,116.27 590.43,116.05C591.25,115.84 592.1,115.82 592.91,115.56C593.76,115.29 594.55,114.65 595.4,114.41C596.21,114.18 597.05,114.17 597.88,114.09C598.71,114.01 599.53,113.98 600.36,113.92C601.19,113.87 602.01,113.84 602.84,113.76C603.67,113.68 604.49,113.54 605.32,113.43C606.15,113.32 606.99,113.34 607.8,113.11C608.65,112.87 609.44,112.26 610.28,111.96C611.09,111.67 611.93,111.47 612.76,111.31C613.58,111.15 614.41,111.09 615.24,110.98C616.07,110.87 616.91,110.87 617.72,110.66C618.56,110.44 619.36,109.9 620.2,109.68C621.01,109.47 621.85,109.49 622.68,109.35C623.51,109.21 624.34,109.05 625.17,108.86C626,108.67 626.82,108.37 627.65,108.21C628.47,108.05 629.3,107.99 630.13,107.88C630.96,107.77 631.79,107.69 632.61,107.55C633.44,107.41 634.12,107.2 635.09,107.06C636.46,106.86 638.69,106.86 640.05,106.57C641.03,106.36 641.7,106.03 642.53,105.76C643.36,105.49 644.17,105.1 645.01,104.94C645.83,104.78 646.67,104.91 647.49,104.78C648.32,104.64 649.14,104.26 649.97,104.12C650.79,103.99 651.62,104.04 652.45,103.96C653.28,103.88 654.11,103.74 654.94,103.63C655.77,103.52 656.59,103.42 657.42,103.31C658.25,103.2 659.07,103.09 659.9,102.98C660.73,102.87 661.41,102.73 662.38,102.65C663.75,102.54 665.98,102.65 667.34,102.49C668.31,102.38 668.99,102.16 669.82,102C670.65,101.84 671.47,101.67 672.3,101.51C673.13,101.35 673.97,101.31 674.78,101.02C675.63,100.72 676.41,99.95 677.26,99.71C678.06,99.48 678.91,99.63 679.74,99.55C680.57,99.47 681.39,99.36 682.22,99.22C683.05,99.08 683.88,98.87 684.71,98.73C685.54,98.6 686.36,98.52 687.19,98.41C688.02,98.3 688.84,98.16 689.67,98.08C690.5,98 691.34,98.13 692.15,97.92C693,97.7 693.79,97.07 694.63,96.77C695.44,96.48 696.28,96.31 697.11,96.12C697.93,95.93 698.77,95.82 699.59,95.63C700.42,95.44 701.24,95.2 702.07,94.98C702.9,94.76 703.74,94.61 704.55,94.32C705.39,94.02 706.19,93.48 707.03,93.18C707.84,92.89 708.68,92.67 709.51,92.53C710.33,92.4 711.16,92.42 711.99,92.36C712.82,92.31 713.65,92.33 714.47,92.2C715.31,92.07 716.13,91.71 716.96,91.55C717.78,91.39 718.62,91.41 719.44,91.22C720.28,91.03 721.09,90.67 721.92,90.4C722.75,90.13 723.57,89.86 724.4,89.59C725.23,89.32 726.04,88.93 726.88,88.77C727.7,88.61 728.53,88.69 729.36,88.61C730.19,88.53 731.03,88.49 731.84,88.28C732.68,88.06 733.48,87.49 734.32,87.3C735.13,87.12 735.97,87.22 736.8,87.14C737.63,87.06 738.47,87.02 739.28,86.81C740.12,86.59 740.93,86.16 741.76,85.83C742.59,85.5 743.4,85.07 744.24,84.85C745.06,84.64 745.9,84.63 746.73,84.52C747.56,84.41 748.39,84.33 749.21,84.2C750.04,84.06 750.87,83.9 751.69,83.71C752.52,83.52 753.34,83.21 754.17,83.05C754.99,82.89 755.83,82.86 756.65,82.73C757.48,82.59 758.31,82.46 759.13,82.24C759.96,82.02 760.79,81.72 761.61,81.42C762.44,81.12 763.25,80.66 764.09,80.44C764.9,80.23 765.75,80.25 766.57,80.11C767.4,79.97 768.22,79.76 769.05,79.62C769.87,79.49 770.7,79.41 771.53,79.3C772.36,79.19 773.18,79.08 774.01,78.97C774.84,78.86 775.68,78.8 776.5,78.64C777.33,78.48 778.15,78.21 778.98,77.99C779.81,77.77 780.63,77.56 781.46,77.34C782.29,77.12 783.11,76.9 783.94,76.68C784.77,76.46 785.59,76.22 786.42,76.03C787.24,75.84 788.07,75.65 788.9,75.54C789.72,75.43 790.56,75.49 791.38,75.38C792.21,75.27 793.04,75.13 793.86,74.89C794.7,74.64 795.5,74.16 796.34,73.91C797.16,73.67 797.99,73.53 798.82,73.42C799.64,73.31 800.48,73.38 801.3,73.25C802.13,73.11 802.95,72.74 803.78,72.6C804.6,72.47 805.43,72.51 806.26,72.43C807.09,72.35 807.94,72.37 808.75,72.11C809.6,71.84 810.41,71.26 811.23,70.8C812.06,70.33 812.86,69.69 813.71,69.33C814.51,68.99 815.36,68.82 816.19,68.68C817.01,68.55 817.84,68.59 818.67,68.51C819.5,68.43 820.32,68.27 821.15,68.19C821.98,68.11 822.8,68.1 823.63,68.02C824.46,67.94 825.29,67.83 826.11,67.7C826.94,67.56 827.77,67.4 828.59,67.21C829.42,67.02 830.24,66.77 831.07,66.55C831.9,66.33 832.72,66.12 833.55,65.9C834.38,65.68 835.2,65.47 836.03,65.25C836.86,65.03 837.69,64.75 838.52,64.59C839.34,64.43 840.17,64.38 841,64.27C841.83,64.16 842.66,64.1 843.48,63.94C844.31,63.78 845.13,63.45 845.96,63.29C846.78,63.13 847.61,63.04 848.44,62.96C849.27,62.88 850.1,62.96 850.92,62.8C851.76,62.64 852.57,62.2 853.4,61.98C854.22,61.76 855.05,61.6 855.88,61.49C856.7,61.38 857.53,61.38 858.36,61.33C859.19,61.27 860.03,61.34 860.84,61.16C861.68,60.97 862.49,60.45 863.32,60.18C864.14,59.91 864.99,59.84 865.8,59.53C866.65,59.2 867.44,58.52 868.29,58.22C869.1,57.93 869.96,58.01 870.77,57.73C871.62,57.43 872.25,56.75 873.25,56.43C874.59,56 876.84,55.95 878.21,55.77C879.18,55.64 879.86,55.56 880.69,55.45C881.52,55.34 882.35,55.26 883.17,55.12C884,54.98 884.83,54.82 885.65,54.63C886.48,54.44 887.3,54.14 888.13,53.98C888.95,53.82 889.79,53.79 890.61,53.65C891.44,53.51 892.27,53.35 893.09,53.16C893.92,52.97 894.6,52.72 895.57,52.51C896.94,52.22 899.17,51.85 900.54,51.69C901.51,51.58 902.19,51.58 903.02,51.53C903.85,51.47 904.67,51.42 905.5,51.36C906.33,51.31 907.16,51.36 907.98,51.2C908.82,51.04 909.63,50.65 910.46,50.38C911.29,50.11 912.1,49.73 912.94,49.57C913.76,49.41 914.59,49.48 915.42,49.4C916.25,49.32 917.07,49.16 917.9,49.08C918.73,49 919.56,49.02 920.38,48.91C921.21,48.8 922.03,48.58 922.86,48.42C923.69,48.26 924.51,48.04 925.34,47.93C926.16,47.82 926.99,47.82 927.82,47.77C928.65,47.72 929.34,47.66 930.31,47.61C931.68,47.54 933.91,47.68 935.27,47.44C936.25,47.27 936.91,46.82 937.75,46.63C938.57,46.44 939.41,46.49 940.23,46.3C941.07,46.11 941.87,45.67 942.71,45.48C943.53,45.29 944.37,45.29 945.19,45.16C946.02,45.02 946.84,44.81 947.67,44.67C948.49,44.53 949.32,44.42 950.15,44.34C950.98,44.26 951.8,44.26 952.63,44.18C953.46,44.1 954.28,43.96 955.11,43.85C955.94,43.74 956.77,43.68 957.59,43.52C958.42,43.36 959.1,43.03 960.08,42.87C961.44,42.65 963.67,42.67 965.04,42.54C966.01,42.45 966.71,42.43 967.52,42.22C968.36,42 969.16,41.49 970,41.24C970.82,41 971.65,40.89 972.48,40.75C973.3,40.61 974.14,40.58 974.96,40.42C975.79,40.26 976.61,39.91 977.44,39.77C978.26,39.64 979.1,39.73 979.92,39.6C980.75,39.46 981.57,39.17 982.4,38.95C983.23,38.73 984.05,38.52 984.88,38.3C985.71,38.08 986.53,37.78 987.36,37.64C988.18,37.51 989.02,37.56 989.85,37.48C990.68,37.4 991.5,37.26 992.33,37.15C993.16,37.04 993.98,36.94 994.81,36.83C995.64,36.72 996.09,36.59 997.29,36.5C1000.46,36.28 1011.48,36.46 1014.65,36.34C1015.85,36.29 1016.32,36.35 1017.13,36.17C1017.97,35.98 1018.79,35.49 1019.62,35.19C1020.44,34.89 1021.28,34.68 1022.1,34.38C1022.93,34.08 1023.74,33.65 1024.58,33.4C1025.4,33.16 1026.25,33.17 1027.06,32.91C1027.9,32.64 1028.74,32.23 1029.54,31.76C1030.39,31.26 1031.15,30.38 1032.02,29.97Q1032.81,29.59 1034.5,29.31" style="vector-effect: none; fill: none; stroke: rgb(35, 134, 54); stroke-opacity: 1; stroke-width: 4px; opacity: 1;"/></g><g class="points"/><g class="text"/></g></g></g></g><g class="zerolinelayer-above"/><path class="xlines-above crisp" d="M79,570.5H1150" style="fill: none; stroke-width: 1px; stroke: rgb(208, 215, 222); stroke-opacity: 1;"/><path class="ylines-above crisp" d="M79.5,100V570" style="fill: none; stroke-width: 1px; stroke: rgb(208, 215, 222); stroke-opacity: 1;"/><g class="overlines-above"/><g class="xaxislayer-above"><g class="xtick"><text text-anchor="middle" x="0" y="586.6" transform="translate(166.82999999999998,0)" style="font-family: 'Segoe UI', Arial, sans-serif; font-size: 13px; fill: rgb(36, 41, 47); fill-opacity: 1; white-space: pre;">Jul 2025</text></g><g class="xtick"><text text-anchor="middle" x="0" y="586.6" style="font-family: 'Segoe UI', Arial, sans-serif; font-size: 13px; fill: rgb(36, 41, 47); fill-opacity: 1; white-space: pre;" transform="translate(320.64,0)">Sep 2025</text></g><g class="xtick"><text text-anchor="middle" x="0" y="586.6" style="font-family: 'Segoe UI', Arial, sans-serif; font-size: 13px; fill: rgb(36, 41, 47); fill-opacity: 1; white-space: pre;" transform="translate(471.97,0)">Nov 2025</text></g><g class="xtick"><text text-anchor="middle" x="0" y="586.6" style="font-family: 'Segoe UI', Arial, sans-serif; font-size: 13px; fill: rgb(36, 41, 47); fill-opacity: 1; white-space: pre;" transform="translate(623.3,0)">Jan 2026</text></g><g class="xtick"><text text-anchor="middle" x="0" y="586.6" style="font-family: 'Segoe UI', Arial, sans-serif; font-size: 13px; fill: rgb(36, 41, 47); fill-opacity: 1; white-space: pre;" transform="translate(769.67,0)">Mar 2026</text></g><g class="xtick"><text text-anchor="middle" x="0" y="586.6" style="font-family: 'Segoe UI', Arial, sans-serif; font-size: 13px; fill: rgb(36, 41, 47); fill-opacity: 1; white-space: pre;" transform="translate(921,0)">May 2026</text></g><g class="xtick"><text text-anchor="middle" x="0" y="586.6" style="font-family: 'Segoe UI', Arial, sans-serif; font-size: 13px; fill: rgb(36, 41, 47); fill-opacity: 1; white-space: pre;" transform="translate(1072.33,0)">Jul 2026</text></g></g><g class="yaxislayer-above"><g class="ytick"><text text-anchor="end" x="76.4" y="4.55" transform="translate(0,570)" style="font-family: 'Segoe UI', Arial, sans-serif; font-size: 13px; fill: rgb(36, 41, 47); fill-opacity: 1; white-space: pre;">0</text></g><g class="ytick"><text text-anchor="end" x="76.4" y="4.55" style="font-family: 'Segoe UI', Arial, sans-serif; font-size: 13px; fill: rgb(36, 41, 47); fill-opacity: 1; white-space: pre;" transform="translate(0,488.33)">500</text></g><g class="ytick"><text text-anchor="end" x="76.4" y="4.55" style="font-family: 'Segoe UI', Arial, sans-serif; font-size: 13px; fill: rgb(36, 41, 47); fill-opacity: 1; white-space: pre;" transform="translate(0,406.66)">1000</text></g><g class="ytick"><text text-anchor="end" x="76.4" y="4.55" style="font-family: 'Segoe UI', Arial, sans-serif; font-size: 13px; fill: rgb(36, 41, 47); fill-opacity: 1; white-space: pre;" transform="translate(0,324.99)">1500</text></g><g class="ytick"><text text-anchor="end" x="76.4" y="4.55" style="font-family: 'Segoe UI', Arial, sans-serif; font-size: 13px; fill: rgb(36, 41, 47); fill-opacity: 1; white-space: pre;" transform="translate(0,243.32)">2000</text></g><g class="ytick"><text text-anchor="end" x="76.4" y="4.55" style="font-family: 'Segoe UI', Arial, sans-serif; font-size: 13px; fill: rgb(36, 41, 47); fill-opacity: 1; white-space: pre;" transform="translate(0,161.65)">2500</text></g></g><g class="overaxes-above"/></g></g><g class="polarlayer"/><g class="smithlayer"/><g class="ternarylayer"/><g class="geolayer"/><g class="funnelarealayer"/><g class="pielayer"/><g class="iciclelayer"/><g class="treemaplayer"/><g class="sunburstlayer"/><g class="glimages"/><defs id="topdefs-8ad689"><g class="clips"/></defs><g class="layer-above"><g class="imagelayer"/><g class="shapelayer"/></g><g class="infolayer"><g class="g-gtitle"><text class="gtitle" x="600" y="26" text-anchor="middle" dy="0.7em" style="opacity: 1; font-family: 'Arial Black'; font-size: 30px; fill: rgb(36, 41, 47); fill-opacity: 1; white-space: pre;">sky22333/hubproxy Star 增长趋势</text></g><g class="g-xtitle"><text class="xtitle" x="615" y="613.899609375" text-anchor="middle" style="opacity: 1; font-family: 'Segoe UI', Arial, sans-serif; font-size: 14px; fill: rgb(36, 41, 47); fill-opacity: 1; white-space: pre;">日期</text></g><g class="g-ytitle"><text class="ytitle" transform="rotate(-90,28.078515625,335)" x="28.078515625" y="335" text-anchor="middle" style="opacity: 1; font-family: 'Segoe UI', Arial, sans-serif; font-size: 14px; fill: rgb(36, 41, 47); fill-opacity: 1; white-space: pre;">累计 Star 数</text></g><g class="annotation" data-index="0" style="opacity: 1;"><g class="annotation-text-g" transform="rotate(0,1114.5,120.5)"><g class="cursor-pointer" transform="translate(1079,100)"><rect class="bg" x="1" y="1" width="69" height="39" style="stroke-width: 2px; stroke: rgb(35, 134, 54); stroke-opacity: 1; fill: rgb(255, 255, 255); fill-opacity: 0.9;"/><text class="annotation-text" text-anchor="middle" x="35.53125" y="28" style="font-family: 'Segoe UI', Arial, sans-serif; font-size: 22px; fill: rgb(35, 134, 54); fill-opacity: 1; white-space: pre;"><tspan style="font-weight:bold">2,698</tspan></text></g></g></g></g></svg>