<svg class="main-svg" xmlns="http://www.w3.org/2000/svg" xmlns:xlink="http://www.w3.org/1999/xlink" width="2400" height="1300" style="" viewBox="0 0 1200 650"><rect x="0" y="0" width="1200" height="650" style="fill: rgb(255, 255, 255); fill-opacity: 1;"/><defs id="defs-33f1e1"><g class="clips"><clipPath id="clip33f1e1xyplot" class="plotclip"><rect width="1070" height="470"/></clipPath><clipPath class="axesclip" id="clip33f1e1x"><rect x="80" y="0" width="1070" height="650"/></clipPath><clipPath class="axesclip" id="clip33f1e1y"><rect x="0" y="100" width="1200" height="470"/></clipPath><clipPath class="axesclip" id="clip33f1e1xy"><rect x="80" y="100" width="1070" height="470"/></clipPath></g><g class="gradients"/><g class="patterns"/></defs><g class="bglayer"/><g class="layer-below"><g class="imagelayer"/><g class="shapelayer"/></g><g class="cartesianlayer"><g class="subplot xy"><g class="layer-subplot"><g class="shapelayer"/><g class="imagelayer"/></g><g class="minor-gridlayer"><g class="x"/><g class="y"/></g><g class="gridlayer"><g class="x"><path class="xgrid crisp" transform="translate(167.88,0)" d="M0,100v470" style="stroke: rgb(228, 232, 235); stroke-opacity: 1; stroke-width: 1px;"/><path class="xgrid crisp" transform="translate(323.56,0)" d="M0,100v470" style="stroke: rgb(228, 232, 235); stroke-opacity: 1; stroke-width: 1px;"/><path class="xgrid crisp" transform="translate(476.73,0)" d="M0,100v470" style="stroke: rgb(228, 232, 235); stroke-opacity: 1; stroke-width: 1px;"/><path class="xgrid crisp" transform="translate(629.89,0)" d="M0,100v470" style="stroke: rgb(228, 232, 235); stroke-opacity: 1; stroke-width: 1px;"/><path class="xgrid crisp" transform="translate(778.04,0)" d="M0,100v470" style="stroke: rgb(228, 232, 235); stroke-opacity: 1; stroke-width: 1px;"/><path class="xgrid crisp" transform="translate(931.2,0)" d="M0,100v470" style="stroke: rgb(228, 232, 235); stroke-opacity: 1; stroke-width: 1px;"/><path class="xgrid crisp" transform="translate(1084.37,0)" d="M0,100v470" style="stroke: rgb(228, 232, 235); stroke-opacity: 1; stroke-width: 1px;"/></g><g class="y"><path class="ygrid crisp" transform="translate(0,487.47)" d="M80,0h1070" style="stroke: rgb(228, 232, 235); stroke-opacity: 1; stroke-width: 1px;"/><path class="ygrid crisp" transform="translate(0,404.95)" d="M80,0h1070" style="stroke: rgb(228, 232, 235); stroke-opacity: 1; stroke-width: 1px;"/><path class="ygrid crisp" transform="translate(0,322.41999999999996)" d="M80,0h1070" style="stroke: rgb(228, 232, 235); stroke-opacity: 1; stroke-width: 1px;"/><path class="ygrid crisp" transform="translate(0,239.9)" d="M80,0h1070" style="stroke: rgb(228, 232, 235); stroke-opacity: 1; stroke-width: 1px;"/><path class="ygrid crisp" transform="translate(0,157.37)" d="M80,0h1070" style="stroke: rgb(228, 232, 235); stroke-opacity: 1; stroke-width: 1px;"/></g></g><g class="zerolinelayer"><path class="yzl zl crisp" transform="translate(0,570)" d="M80,0h1070" style="stroke: rgb(255, 255, 255); stroke-opacity: 1; stroke-width: 2px;"/></g><g class="layer-between"><g class="shapelayer"/><g class="imagelayer"/></g><path class="xlines-below"/><path class="ylines-below"/><g class="overlines-below"/><g class="xaxislayer-below"/><g class="yaxislayer-below"/><g class="overaxes-below"/><g class="overplot"><g class="xy" transform="translate(80,100)" clip-path="url(#clip33f1e1xyplot)"><g class="scatterlayer mlayer"><g class="trace scatter trace598cb2" style="stroke-miterlimit: 2;"><g class="fills"><g><path class="js-fill" d="M1034.5,470L0,470L0,469.83Q1.24,469.74 2.51,469.67C6.53,469.46 23.6,468.9 27.62,468.68C28.89,468.61 29.29,468.57 30.13,468.51C30.97,468.46 31.8,468.4 32.64,468.35C33.48,468.29 34.17,468.23 35.15,468.18C36.54,468.11 38.94,468.9 40.17,468.02C41.63,466.98 41.52,462.54 42.69,461.42C43.4,460.74 44.46,461.2 45.2,460.59C46.24,459.72 46.98,457.92 47.71,455.97C48.79,453.07 48.92,446.84 50.22,444.58C50.92,443.36 51.95,443.19 52.73,442.27C53.64,441.21 54.35,439.6 55.24,438.48C56.04,437.48 56.87,436.57 57.75,435.83C58.55,435.16 59.39,434.57 60.26,434.18C61.07,433.82 61.95,433.84 62.77,433.52C63.63,433.19 64.44,432.64 65.28,432.2C66.12,431.76 66.99,431.46 67.79,430.88C68.68,430.23 69.43,429.09 70.31,428.41C71.11,427.79 72.02,427.55 72.82,426.92C73.71,426.21 74.43,424.96 75.33,424.28C76.12,423.68 77,423.37 77.84,422.96C78.67,422.55 79.5,422.09 80.35,421.81C81.17,421.54 82.05,421.64 82.86,421.31C83.73,420.95 84.53,420.19 85.37,419.66C86.2,419.14 87.07,418.75 87.88,418.17C88.74,417.55 89.51,416.56 90.39,416.03C91.19,415.55 92.05,415.32 92.9,415.04C93.73,414.77 94.58,414.63 95.42,414.38C96.26,414.13 97.09,413.8 97.93,413.55C98.76,413.3 99.6,413.08 100.44,412.89C101.27,412.7 102.19,412.86 102.95,412.4C103.9,411.82 104.56,410.12 105.46,409.26C106.25,408.51 107.13,408.05 107.97,407.45C108.81,406.84 109.67,406.34 110.48,405.63C111.35,404.87 112.07,403.5 112.99,402.99C113.76,402.56 114.67,402.71 115.5,402.49C116.34,402.27 117.25,402.21 118.01,401.67C118.96,400.99 119.57,399.09 120.52,398.37C121.29,397.79 122.21,397.76 123.04,397.38C123.89,396.99 124.7,396.42 125.55,396.06C126.37,395.71 127.36,396.12 128.06,395.23C130.44,392.2 128.92,370.52 130.57,364.86C131.26,362.48 132.17,361.47 133.08,360.08C133.86,358.88 134.83,358.22 135.59,356.94C136.56,355.29 137.14,352.5 138.1,350.83C138.86,349.5 139.69,348.38 140.61,347.53C141.39,346.8 142.33,346.56 143.12,345.88C144.01,345.11 144.75,343.87 145.63,343.08C146.43,342.36 147.27,341.71 148.14,341.26C148.95,340.85 149.88,340.93 150.66,340.43C151.58,339.85 152.37,338.77 153.17,337.79C154.05,336.71 154.98,335.9 155.68,334.16C157,330.88 157.26,323.31 158.19,318.65C158.96,314.77 159.64,310.8 160.7,308.08C161.43,306.22 162.27,304.82 163.21,303.63C163.98,302.66 164.83,301.91 165.72,301.32C166.52,300.79 167.52,300.95 168.23,300.16C169.42,298.85 169.76,294.88 170.74,292.9C171.49,291.37 172.33,290.11 173.25,289.1C174.02,288.26 174.98,287.95 175.76,287.12C176.68,286.14 177.36,284.47 178.28,283.49C179.06,282.66 180.01,282.33 180.79,281.51C181.7,280.57 182.36,278.87 183.3,278.05C184.07,277.39 185.02,277.33 185.81,276.73C186.71,276.05 187.45,274.87 188.32,274.08C189.13,273.34 189.95,272.6 190.83,272.1C191.63,271.64 192.55,271.62 193.34,271.11C194.24,270.52 194.94,269.16 195.85,268.64C196.63,268.2 197.56,268.38 198.36,267.98C199.25,267.54 199.98,266.44 200.87,266C201.67,265.6 202.55,265.59 203.38,265.34C204.22,265.09 205.05,264.73 205.9,264.51C206.73,264.29 207.58,264.24 208.41,264.02C209.25,263.8 210.11,263.58 210.92,263.19C211.79,262.77 212.73,262.54 213.43,261.54C214.75,259.66 214.64,253.08 215.94,251.14C216.64,250.1 217.59,249.83 218.45,249.33C219.26,248.85 220.1,248.42 220.96,248.17C221.78,247.93 222.68,248.17 223.47,247.84C224.36,247.46 225.11,246.39 225.98,245.86C226.79,245.37 227.68,245.19 228.49,244.71C229.35,244.21 230.14,243.39 231,242.89C231.82,242.41 232.69,242.16 233.52,241.73C234.37,241.29 235.19,240.72 236.03,240.25C236.86,239.79 237.68,239.26 238.54,238.93C239.36,238.61 240.21,238.44 241.05,238.27C241.88,238.11 242.75,238.22 243.56,237.94C244.43,237.64 245.21,236.81 246.07,236.45C246.88,236.11 247.74,235.98 248.58,235.79C249.41,235.6 250.26,235.49 251.09,235.3C251.93,235.11 252.79,234.98 253.6,234.64C254.46,234.28 255.24,233.45 256.11,233.15C256.92,232.87 257.8,233.01 258.63,232.82C259.48,232.63 260.3,232.22 261.14,232C261.97,231.78 262.81,231.64 263.65,231.5C264.48,231.36 265.33,231.36 266.16,231.17C267.01,230.98 267.83,230.57 268.67,230.35C269.5,230.13 270.34,230.02 271.18,229.85C272.02,229.69 272.85,229.47 273.69,229.36C274.52,229.25 275.36,229.25 276.2,229.19C277.04,229.14 277.88,229.14 278.71,229.03C279.55,228.92 280.4,228.8 281.22,228.53C282.07,228.25 282.89,227.73 283.73,227.37C284.56,227.01 285.43,226.78 286.25,226.38C287.1,225.96 287.92,225.39 288.76,224.9C289.6,224.4 290.4,223.74 291.27,223.41C292.08,223.1 292.98,223.27 293.78,222.92C294.66,222.54 295.42,221.58 296.29,221.1C297.1,220.66 297.95,220.3 298.8,220.11C299.62,219.93 300.49,220.16 301.31,219.95C302.17,219.73 302.98,219.18 303.82,218.79C304.66,218.41 305.48,217.94 306.33,217.64C307.15,217.35 308.03,217.32 308.84,216.98C309.7,216.62 310.49,215.85 311.35,215.49C312.17,215.15 313.03,215 313.87,214.83C314.7,214.67 315.55,214.64 316.38,214.5C317.22,214.36 318.06,214.2 318.89,214.01C319.73,213.82 320.56,213.54 321.4,213.35C322.23,213.16 323.08,213.07 323.91,212.85C324.75,212.63 325.58,212.25 326.42,212.03C327.25,211.81 328.09,211.7 328.93,211.53C329.77,211.36 330.61,211.25 331.44,211.03C332.28,210.81 333.11,210.48 333.95,210.21C334.79,209.93 335.63,209.68 336.46,209.38C337.3,209.08 338.13,208.69 338.97,208.39C339.8,208.09 340.64,207.76 341.49,207.57C342.32,207.38 343.17,207.38 344,207.24C344.84,207.1 345.69,207.01 346.51,206.74C347.36,206.46 348.17,205.87 349.02,205.59C349.84,205.32 350.71,205.38 351.53,205.09C352.39,204.79 353.19,204.16 354.04,203.77C354.87,203.39 355.7,203.03 356.55,202.78C357.38,202.54 358.23,202.53 359.06,202.29C359.91,202.04 360.72,201.52 361.57,201.3C362.39,201.09 363.25,201.11 364.08,200.97C364.92,200.83 365.76,200.71 366.59,200.47C367.44,200.22 368.26,199.76 369.11,199.48C369.94,199.21 370.79,199.07 371.62,198.82C372.46,198.57 373.29,198.25 374.13,198C374.96,197.75 375.8,197.48 376.64,197.34C377.47,197.2 378.32,197.28 379.15,197.17C379.99,197.06 380.83,196.87 381.66,196.68C382.5,196.49 383.34,196.29 384.17,196.02C385.02,195.74 385.87,195.46 386.68,195.02C387.55,194.54 388.32,193.66 389.19,193.21C390,192.8 390.85,192.57 391.7,192.38C392.53,192.19 393.37,192.13 394.21,192.05C395.05,191.97 395.89,191.95 396.73,191.89C397.57,191.84 398.44,191.99 399.24,191.72C400.12,191.42 400.9,190.57 401.75,190.07C402.57,189.58 403.45,189.28 404.26,188.75C405.12,188.19 405.89,187.27 406.77,186.77C407.57,186.31 408.45,186.13 409.28,185.78C410.12,185.42 410.95,185.01 411.79,184.63C412.63,184.24 413.45,183.78 414.3,183.47C415.12,183.17 415.97,182.98 416.81,182.81C417.64,182.65 418.34,182.62 419.32,182.48C420.71,182.28 422.99,182.11 424.35,181.66C425.36,181.32 426.01,180.7 426.86,180.34C427.68,179.99 428.53,179.79 429.37,179.51C430.21,179.23 431.03,178.87 431.88,178.68C432.71,178.49 433.55,178.46 434.39,178.35C435.23,178.24 436.08,178.26 436.9,178.02C437.76,177.77 438.57,177.25 439.41,176.87C440.25,176.48 441.12,176.24 441.92,175.71C442.81,175.12 443.56,174.08 444.43,173.4C445.24,172.77 446.07,172.14 446.94,171.75C447.75,171.39 448.63,171.36 449.46,171.09C450.31,170.81 451.13,170.43 451.97,170.1C452.81,169.77 453.66,169.51 454.48,169.11C455.33,168.69 456.12,167.96 456.99,167.63C457.8,167.32 458.72,167.53 459.5,167.13C460.41,166.67 461.11,165.31 462.01,164.82C462.8,164.39 463.68,164.38 464.52,164.16C465.36,163.94 466.2,163.77 467.03,163.5C467.87,163.22 468.69,162.73 469.54,162.51C470.36,162.3 471.24,162.46 472.05,162.18C472.92,161.88 473.71,161.13 474.56,160.69C475.39,160.26 476.23,159.87 477.08,159.54C477.91,159.21 478.76,159.01 479.59,158.71C480.43,158.41 481.26,158 482.1,157.72C482.93,157.45 483.77,157.28 484.61,157.06C485.45,156.84 486.34,156.86 487.12,156.4C488.04,155.86 488.82,154.73 489.63,153.76C490.5,152.71 491.21,151.15 492.14,150.3C492.91,149.6 493.78,149.14 494.65,148.81C495.46,148.5 496.35,148.63 497.16,148.32C498.03,147.99 498.83,147.3 499.67,146.83C500.5,146.37 501.33,145.87 502.18,145.51C503,145.16 503.86,144.96 504.7,144.68C505.54,144.41 506.38,144.16 507.21,143.86C508.05,143.56 508.88,143.2 509.72,142.87C510.56,142.54 511.4,142.26 512.23,141.88C513.08,141.49 513.89,140.95 514.74,140.56C515.57,140.18 516.4,139.82 517.25,139.57C518.08,139.33 518.92,139.21 519.76,139.07C520.59,138.93 521.44,138.88 522.27,138.74C523.11,138.6 523.95,138.49 524.78,138.25C525.63,138 526.46,137.62 527.29,137.26C528.13,136.9 528.95,136.38 529.8,136.1C530.62,135.83 531.48,135.75 532.32,135.61C533.16,135.47 533.99,135.39 534.83,135.28C535.67,135.17 536.5,135.03 537.34,134.95C538.18,134.87 539.02,134.89 539.85,134.78C540.69,134.67 541.53,134.51 542.36,134.29C543.2,134.07 544.04,133.76 544.87,133.46C545.71,133.16 546.53,132.66 547.38,132.47C548.2,132.29 549.06,132.44 549.89,132.31C550.73,132.17 551.61,132.08 552.4,131.65C553.3,131.15 554.03,129.95 554.91,129.33C555.71,128.76 556.63,128.61 557.42,128.01C558.32,127.33 559.02,125.95 559.94,125.37C560.72,124.88 561.6,124.74 562.45,124.55C563.28,124.36 564.13,124.41 564.96,124.22C565.81,124.03 566.63,123.61 567.47,123.39C568.3,123.17 569.15,123.09 569.98,122.9C570.82,122.71 571.66,122.49 572.49,122.24C573.33,121.99 574.18,121.76 575,121.41C575.85,121.05 576.66,120.45 577.51,120.09C578.33,119.74 579.19,119.57 580.02,119.27C580.86,118.97 581.69,118.58 582.53,118.28C583.36,117.98 584.21,117.78 585.04,117.45C585.89,117.12 586.72,116.66 587.56,116.3C588.39,115.95 589.22,115.53 590.07,115.31C590.89,115.1 591.79,115.32 592.58,114.98C593.47,114.6 594.21,113.46 595.09,112.99C595.89,112.56 596.76,112.39 597.6,112.17C598.43,111.95 599.29,111.94 600.11,111.67C600.96,111.39 601.76,110.77 602.62,110.52C603.44,110.28 604.29,110.27 605.13,110.19C605.97,110.11 606.8,110.08 607.64,110.02C608.48,109.97 609.31,109.94 610.15,109.86C610.99,109.78 611.83,109.64 612.67,109.53C613.51,109.42 614.36,109.44 615.18,109.2C616.04,108.95 616.84,108.35 617.69,108.04C618.51,107.74 619.36,107.55 620.2,107.38C621.03,107.22 621.87,107.16 622.71,107.05C623.55,106.94 624.4,106.93 625.22,106.72C626.07,106.5 626.88,105.95 627.73,105.73C628.55,105.52 629.41,105.54 630.24,105.4C631.08,105.26 631.92,105.1 632.75,104.91C633.59,104.72 634.42,104.42 635.26,104.25C636.09,104.09 636.93,104.03 637.77,103.92C638.61,103.81 639.45,103.73 640.29,103.59C641.13,103.45 641.82,103.24 642.8,103.09C644.18,102.89 646.45,102.89 647.82,102.6C648.81,102.39 649.49,102.05 650.33,101.77C651.17,101.5 651.99,101.11 652.84,100.95C653.67,100.79 654.52,100.92 655.35,100.78C656.19,100.64 657.02,100.26 657.86,100.12C658.69,99.99 659.53,100.04 660.37,99.96C661.21,99.88 662.04,99.74 662.88,99.63C663.72,99.52 664.55,99.41 665.39,99.3C666.23,99.19 667.07,99.08 667.91,98.97C668.75,98.86 669.44,98.72 670.42,98.64C671.8,98.53 674.06,98.63 675.44,98.47C676.43,98.36 677.11,98.14 677.95,97.97C678.79,97.81 679.62,97.64 680.46,97.48C681.3,97.31 682.15,97.27 682.97,96.98C683.83,96.68 684.62,95.9 685.48,95.66C686.29,95.43 687.15,95.58 687.99,95.5C688.83,95.42 689.67,95.31 690.5,95.17C691.34,95.03 692.17,94.81 693.01,94.67C693.85,94.53 694.69,94.45 695.53,94.34C696.37,94.23 697.2,94.09 698.04,94.01C698.88,93.93 699.73,94.06 700.55,93.85C701.41,93.63 702.21,93 703.06,92.69C703.88,92.39 704.73,92.22 705.57,92.03C706.4,91.84 707.25,91.73 708.08,91.54C708.92,91.35 709.75,91.1 710.59,90.88C711.43,90.66 712.28,90.52 713.1,90.22C713.95,89.91 714.76,89.37 715.61,89.06C716.43,88.76 717.28,88.54 718.12,88.4C718.95,88.27 719.79,88.29 720.63,88.24C721.47,88.18 722.32,88.21 723.15,88.07C723.99,87.93 724.82,87.58 725.66,87.41C726.49,87.25 727.34,87.27 728.17,87.08C729.02,86.89 729.84,86.53 730.68,86.26C731.52,85.98 732.35,85.71 733.19,85.43C734.03,85.16 734.85,84.77 735.7,84.61C736.53,84.45 737.37,84.52 738.21,84.44C739.05,84.36 739.9,84.32 740.72,84.11C741.57,83.89 742.38,83.31 743.23,83.12C744.05,82.94 744.9,83.04 745.74,82.96C746.58,82.88 747.43,82.84 748.25,82.63C749.1,82.41 749.93,81.96 750.77,81.63C751.61,81.3 752.43,80.86 753.28,80.64C754.1,80.43 754.95,80.42 755.79,80.31C756.63,80.2 757.47,80.12 758.3,79.98C759.14,79.84 759.98,79.68 760.81,79.49C761.65,79.3 762.48,79 763.32,78.83C764.15,78.67 765,78.64 765.83,78.5C766.67,78.36 767.51,78.22 768.34,78C769.18,77.78 770.02,77.48 770.85,77.18C771.69,76.88 772.51,76.41 773.36,76.19C774.19,75.98 775.04,76 775.88,75.86C776.72,75.72 777.55,75.5 778.39,75.36C779.22,75.22 780.06,75.14 780.9,75.03C781.74,74.92 782.57,74.81 783.41,74.7C784.25,74.59 785.09,74.53 785.92,74.37C786.76,74.2 787.59,73.93 788.43,73.71C789.27,73.49 790.1,73.27 790.94,73.05C791.78,72.83 792.61,72.61 793.45,72.39C794.29,72.17 795.12,71.92 795.96,71.73C796.79,71.54 797.63,71.35 798.47,71.24C799.3,71.13 800.15,71.18 800.98,71.07C801.82,70.96 802.67,70.82 803.5,70.58C804.35,70.33 805.16,69.84 806.01,69.59C806.84,69.35 807.68,69.2 808.52,69.09C809.35,68.98 810.2,69.06 811.03,68.93C811.87,68.79 812.7,68.41 813.54,68.27C814.37,68.13 815.21,68.18 816.05,68.1C816.89,68.02 817.75,68.03 818.56,67.77C819.42,67.5 820.24,66.91 821.07,66.45C821.91,65.98 822.72,65.32 823.58,64.96C824.39,64.62 825.25,64.44 826.09,64.3C826.92,64.17 827.76,64.22 828.6,64.14C829.44,64.06 830.28,63.89 831.12,63.81C831.96,63.73 832.79,63.72 833.63,63.64C834.47,63.56 835.31,63.45 836.14,63.31C836.98,63.17 837.82,63.01 838.65,62.82C839.49,62.63 840.32,62.38 841.16,62.16C842,61.94 842.83,61.72 843.67,61.5C844.51,61.28 845.34,61.06 846.18,60.84C847.02,60.62 847.85,60.35 848.69,60.18C849.52,60.02 850.36,59.96 851.2,59.85C852.04,59.74 852.88,59.68 853.71,59.52C854.55,59.35 855.38,59.03 856.22,58.86C857.05,58.7 857.9,58.61 858.74,58.53C859.58,58.45 860.42,58.52 861.25,58.36C862.1,58.2 862.92,57.76 863.76,57.54C864.59,57.32 865.43,57.15 866.27,57.04C867.1,56.93 867.94,56.93 868.78,56.88C869.62,56.82 870.47,56.9 871.29,56.71C872.14,56.52 872.96,56 873.8,55.72C874.63,55.45 875.49,55.38 876.31,55.06C877.17,54.73 877.96,54.04 878.82,53.74C879.64,53.45 880.51,53.54 881.33,53.25C882.19,52.95 882.82,52.25 883.84,51.93C885.2,51.5 887.48,51.45 888.87,51.27C889.85,51.14 890.54,51.05 891.38,50.94C892.22,50.83 893.06,50.75 893.89,50.61C894.73,50.47 895.57,50.3 896.4,50.11C897.24,49.92 898.07,49.62 898.91,49.45C899.74,49.29 900.59,49.26 901.42,49.12C902.26,48.98 903.1,48.81 903.93,48.62C904.77,48.43 905.45,48.17 906.44,47.96C907.82,47.67 910.07,47.3 911.46,47.14C912.44,47.03 913.14,47.03 913.98,46.97C914.82,46.92 915.65,46.86 916.49,46.81C917.33,46.75 918.17,46.8 919,46.64C919.85,46.48 920.67,46.09 921.51,45.82C922.35,45.54 923.17,45.15 924.02,44.99C924.85,44.83 925.69,44.91 926.53,44.83C927.37,44.75 928.2,44.58 929.04,44.5C929.88,44.42 930.72,44.44 931.55,44.33C932.39,44.22 933.22,44 934.06,43.84C934.9,43.67 935.73,43.45 936.57,43.34C937.4,43.23 938.24,43.23 939.08,43.18C939.92,43.12 940.62,43.06 941.6,43.01C942.99,42.94 945.25,43.09 946.62,42.85C947.62,42.67 948.28,42.21 949.13,42.02C949.96,41.83 950.81,41.88 951.64,41.69C952.49,41.5 953.3,41.06 954.15,40.87C954.98,40.68 955.83,40.68 956.66,40.54C957.5,40.4 958.33,40.18 959.17,40.04C960,39.9 960.84,39.79 961.68,39.71C962.52,39.63 963.35,39.63 964.19,39.55C965.03,39.47 965.87,39.33 966.71,39.22C967.55,39.11 968.39,39.05 969.22,38.89C970.06,38.72 970.74,38.39 971.73,38.23C973.11,38.01 975.37,38.04 976.75,37.9C977.73,37.8 978.44,37.78 979.26,37.57C980.11,37.35 980.92,36.83 981.77,36.58C982.6,36.34 983.44,36.22 984.28,36.08C985.11,35.94 985.96,35.91 986.79,35.75C987.63,35.58 988.46,35.23 989.3,35.09C990.13,34.96 990.98,35.06 991.81,34.93C992.66,34.79 993.49,34.49 994.33,34.27C995.17,34.05 996,33.83 996.84,33.61C997.68,33.39 998.51,33.11 999.35,32.94C1000.18,32.78 1001.02,32.72 1001.86,32.61C1002.7,32.5 1003.53,32.39 1004.37,32.28C1005.21,32.17 1006.04,32.06 1006.88,31.95C1007.72,31.84 1008.17,31.71 1009.39,31.62C1012.6,31.4 1023.76,31.58 1026.97,31.46C1028.19,31.41 1028.66,31.48 1029.48,31.29C1030.33,31.1 1031.15,30.63 1031.99,30.3Q1032.83,29.97 1034.5,29.31" style="fill: rgb(35, 134, 54); fill-opacity: 0.1; stroke-width: 0;"/></g></g><g class="errorbars"/><g class="lines"><path class="js-line" d="M0,469.83Q1.24,469.74 2.51,469.67C6.53,469.46 23.6,468.9 27.62,468.68C28.89,468.61 29.29,468.57 30.13,468.51C30.97,468.46 31.8,468.4 32.64,468.35C33.48,468.29 34.17,468.23 35.15,468.18C36.54,468.11 38.94,468.9 40.17,468.02C41.63,466.98 41.52,462.54 42.69,461.42C43.4,460.74 44.46,461.2 45.2,460.59C46.24,459.72 46.98,457.92 47.71,455.97C48.79,453.07 48.92,446.84 50.22,444.58C50.92,443.36 51.95,443.19 52.73,442.27C53.64,441.21 54.35,439.6 55.24,438.48C56.04,437.48 56.87,436.57 57.75,435.83C58.55,435.16 59.39,434.57 60.26,434.18C61.07,433.82 61.95,433.84 62.77,433.52C63.63,433.19 64.44,432.64 65.28,432.2C66.12,431.76 66.99,431.46 67.79,430.88C68.68,430.23 69.43,429.09 70.31,428.41C71.11,427.79 72.02,427.55 72.82,426.92C73.71,426.21 74.43,424.96 75.33,424.28C76.12,423.68 77,423.37 77.84,422.96C78.67,422.55 79.5,422.09 80.35,421.81C81.17,421.54 82.05,421.64 82.86,421.31C83.73,420.95 84.53,420.19 85.37,419.66C86.2,419.14 87.07,418.75 87.88,418.17C88.74,417.55 89.51,416.56 90.39,416.03C91.19,415.55 92.05,415.32 92.9,415.04C93.73,414.77 94.58,414.63 95.42,414.38C96.26,414.13 97.09,413.8 97.93,413.55C98.76,413.3 99.6,413.08 100.44,412.89C101.27,412.7 102.19,412.86 102.95,412.4C103.9,411.82 104.56,410.12 105.46,409.26C106.25,408.51 107.13,408.05 107.97,407.45C108.81,406.84 109.67,406.34 110.48,405.63C111.35,404.87 112.07,403.5 112.99,402.99C113.76,402.56 114.67,402.71 115.5,402.49C116.34,402.27 117.25,402.21 118.01,401.67C118.96,400.99 119.57,399.09 120.52,398.37C121.29,397.79 122.21,397.76 123.04,397.38C123.89,396.99 124.7,396.42 125.55,396.06C126.37,395.71 127.36,396.12 128.06,395.23C130.44,392.2 128.92,370.52 130.57,364.86C131.26,362.48 132.17,361.47 133.08,360.08C133.86,358.88 134.83,358.22 135.59,356.94C136.56,355.29 137.14,352.5 138.1,350.83C138.86,349.5 139.69,348.38 140.61,347.53C141.39,346.8 142.33,346.56 143.12,345.88C144.01,345.11 144.75,343.87 145.63,343.08C146.43,342.36 147.27,341.71 148.14,341.26C148.95,340.85 149.88,340.93 150.66,340.43C151.58,339.85 152.37,338.77 153.17,337.79C154.05,336.71 154.98,335.9 155.68,334.16C157,330.88 157.26,323.31 158.19,318.65C158.96,314.77 159.64,310.8 160.7,308.08C161.43,306.22 162.27,304.82 163.21,303.63C163.98,302.66 164.83,301.91 165.72,301.32C166.52,300.79 167.52,300.95 168.23,300.16C169.42,298.85 169.76,294.88 170.74,292.9C171.49,291.37 172.33,290.11 173.25,289.1C174.02,288.26 174.98,287.95 175.76,287.12C176.68,286.14 177.36,284.47 178.28,283.49C179.06,282.66 180.01,282.33 180.79,281.51C181.7,280.57 182.36,278.87 183.3,278.05C184.07,277.39 185.02,277.33 185.81,276.73C186.71,276.05 187.45,274.87 188.32,274.08C189.13,273.34 189.95,272.6 190.83,272.1C191.63,271.64 192.55,271.62 193.34,271.11C194.24,270.52 194.94,269.16 195.85,268.64C196.63,268.2 197.56,268.38 198.36,267.98C199.25,267.54 199.98,266.44 200.87,266C201.67,265.6 202.55,265.59 203.38,265.34C204.22,265.09 205.05,264.73 205.9,264.51C206.73,264.29 207.58,264.24 208.41,264.02C209.25,263.8 210.11,263.58 210.92,263.19C211.79,262.77 212.73,262.54 213.43,261.54C214.75,259.66 214.64,253.08 215.94,251.14C216.64,250.1 217.59,249.83 218.45,249.33C219.26,248.85 220.1,248.42 220.96,248.17C221.78,247.93 222.68,248.17 223.47,247.84C224.36,247.46 225.11,246.39 225.98,245.86C226.79,245.37 227.68,245.19 228.49,244.71C229.35,244.21 230.14,243.39 231,242.89C231.82,242.41 232.69,242.16 233.52,241.73C234.37,241.29 235.19,240.72 236.03,240.25C236.86,239.79 237.68,239.26 238.54,238.93C239.36,238.61 240.21,238.44 241.05,238.27C241.88,238.11 242.75,238.22 243.56,237.94C244.43,237.64 245.21,236.81 246.07,236.45C246.88,236.11 247.74,235.98 248.58,235.79C249.41,235.6 250.26,235.49 251.09,235.3C251.93,235.11 252.79,234.98 253.6,234.64C254.46,234.28 255.24,233.45 256.11,233.15C256.92,232.87 257.8,233.01 258.63,232.82C259.48,232.63 260.3,232.22 261.14,232C261.97,231.78 262.81,231.64 263.65,231.5C264.48,231.36 265.33,231.36 266.16,231.17C267.01,230.98 267.83,230.57 268.67,230.35C269.5,230.13 270.34,230.02 271.18,229.85C272.02,229.69 272.85,229.47 273.69,229.36C274.52,229.25 275.36,229.25 276.2,229.19C277.04,229.14 277.88,229.14 278.71,229.03C279.55,228.92 280.4,228.8 281.22,228.53C282.07,228.25 282.89,227.73 283.73,227.37C284.56,227.01 285.43,226.78 286.25,226.38C287.1,225.96 287.92,225.39 288.76,224.9C289.6,224.4 290.4,223.74 291.27,223.41C292.08,223.1 292.98,223.27 293.78,222.92C294.66,222.54 295.42,221.58 296.29,221.1C297.1,220.66 297.95,220.3 298.8,220.11C299.62,219.93 300.49,220.16 301.31,219.95C302.17,219.73 302.98,219.18 303.82,218.79C304.66,218.41 305.48,217.94 306.33,217.64C307.15,217.35 308.03,217.32 308.84,216.98C309.7,216.62 310.49,215.85 311.35,215.49C312.17,215.15 313.03,215 313.87,214.83C314.7,214.67 315.55,214.64 316.38,214.5C317.22,214.36 318.06,214.2 318.89,214.01C319.73,213.82 320.56,213.54 321.4,213.35C322.23,213.16 323.08,213.07 323.91,212.85C324.75,212.63 325.58,212.25 326.42,212.03C327.25,211.81 328.09,211.7 328.93,211.53C329.77,211.36 330.61,211.25 331.44,211.03C332.28,210.81 333.11,210.48 333.95,210.21C334.79,209.93 335.63,209.68 336.46,209.38C337.3,209.08 338.13,208.69 338.97,208.39C339.8,208.09 340.64,207.76 341.49,207.57C342.32,207.38 343.17,207.38 344,207.24C344.84,207.1 345.69,207.01 346.51,206.74C347.36,206.46 348.17,205.87 349.02,205.59C349.84,205.32 350.71,205.38 351.53,205.09C352.39,204.79 353.19,204.16 354.04,203.77C354.87,203.39 355.7,203.03 356.55,202.78C357.38,202.54 358.23,202.53 359.06,202.29C359.91,202.04 360.72,201.52 361.57,201.3C362.39,201.09 363.25,201.11 364.08,200.97C364.92,200.83 365.76,200.71 366.59,200.47C367.44,200.22 368.26,199.76 369.11,199.48C369.94,199.21 370.79,199.07 371.62,198.82C372.46,198.57 373.29,198.25 374.13,198C374.96,197.75 375.8,197.48 376.64,197.34C377.47,197.2 378.32,197.28 379.15,197.17C379.99,197.06 380.83,196.87 381.66,196.68C382.5,196.49 383.34,196.29 384.17,196.02C385.02,195.74 385.87,195.46 386.68,195.02C387.55,194.54 388.32,193.66 389.19,193.21C390,192.8 390.85,192.57 391.7,192.38C392.53,192.19 393.37,192.13 394.21,192.05C395.05,191.97 395.89,191.95 396.73,191.89C397.57,191.84 398.44,191.99 399.24,191.72C400.12,191.42 400.9,190.57 401.75,190.07C402.57,189.58 403.45,189.28 404.26,188.75C405.12,188.19 405.89,187.27 406.77,186.77C407.57,186.31 408.45,186.13 409.28,185.78C410.12,185.42 410.95,185.01 411.79,184.63C412.63,184.24 413.45,183.78 414.3,183.47C415.12,183.17 415.97,182.98 416.81,182.81C417.64,182.65 418.34,182.62 419.32,182.48C420.71,182.28 422.99,182.11 424.35,181.66C425.36,181.32 426.01,180.7 426.86,180.34C427.68,179.99 428.53,179.79 429.37,179.51C430.21,179.23 431.03,178.87 431.88,178.68C432.71,178.49 433.55,178.46 434.39,178.35C435.23,178.24 436.08,178.26 436.9,178.02C437.76,177.77 438.57,177.25 439.41,176.87C440.25,176.48 441.12,176.24 441.92,175.71C442.81,175.12 443.56,174.08 444.43,173.4C445.24,172.77 446.07,172.14 446.94,171.75C447.75,171.39 448.63,171.36 449.46,171.09C450.31,170.81 451.13,170.43 451.97,170.1C452.81,169.77 453.66,169.51 454.48,169.11C455.33,168.69 456.12,167.96 456.99,167.63C457.8,167.32 458.72,167.53 459.5,167.13C460.41,166.67 461.11,165.31 462.01,164.82C462.8,164.39 463.68,164.38 464.52,164.16C465.36,163.94 466.2,163.77 467.03,163.5C467.87,163.22 468.69,162.73 469.54,162.51C470.36,162.3 471.24,162.46 472.05,162.18C472.92,161.88 473.71,161.13 474.56,160.69C475.39,160.26 476.23,159.87 477.08,159.54C477.91,159.21 478.76,159.01 479.59,158.71C480.43,158.41 481.26,158 482.1,157.72C482.93,157.45 483.77,157.28 484.61,157.06C485.45,156.84 486.34,156.86 487.12,156.4C488.04,155.86 488.82,154.73 489.63,153.76C490.5,152.71 491.21,151.15 492.14,150.3C492.91,149.6 493.78,149.14 494.65,148.81C495.46,148.5 496.35,148.63 497.16,148.32C498.03,147.99 498.83,147.3 499.67,146.83C500.5,146.37 501.33,145.87 502.18,145.51C503,145.16 503.86,144.96 504.7,144.68C505.54,144.41 506.38,144.16 507.21,143.86C508.05,143.56 508.88,143.2 509.72,142.87C510.56,142.54 511.4,142.26 512.23,141.88C513.08,141.49 513.89,140.95 514.74,140.56C515.57,140.18 516.4,139.82 517.25,139.57C518.08,139.33 518.92,139.21 519.76,139.07C520.59,138.93 521.44,138.88 522.27,138.74C523.11,138.6 523.95,138.49 524.78,138.25C525.63,138 526.46,137.62 527.29,137.26C528.13,136.9 528.95,136.38 529.8,136.1C530.62,135.83 531.48,135.75 532.32,135.61C533.16,135.47 533.99,135.39 534.83,135.28C535.67,135.17 536.5,135.03 537.34,134.95C538.18,134.87 539.02,134.89 539.85,134.78C540.69,134.67 541.53,134.51 542.36,134.29C543.2,134.07 544.04,133.76 544.87,133.46C545.71,133.16 546.53,132.66 547.38,132.47C548.2,132.29 549.06,132.44 549.89,132.31C550.73,132.17 551.61,132.08 552.4,131.65C553.3,131.15 554.03,129.95 554.91,129.33C555.71,128.76 556.63,128.61 557.42,128.01C558.32,127.33 559.02,125.95 559.94,125.37C560.72,124.88 561.6,124.74 562.45,124.55C563.28,124.36 564.13,124.41 564.96,124.22C565.81,124.03 566.63,123.61 567.47,123.39C568.3,123.17 569.15,123.09 569.98,122.9C570.82,122.71 571.66,122.49 572.49,122.24C573.33,121.99 574.18,121.76 575,121.41C575.85,121.05 576.66,120.45 577.51,120.09C578.33,119.74 579.19,119.57 580.02,119.27C580.86,118.97 581.69,118.58 582.53,118.28C583.36,117.98 584.21,117.78 585.04,117.45C585.89,117.12 586.72,116.66 587.56,116.3C588.39,115.95 589.22,115.53 590.07,115.31C590.89,115.1 591.79,115.32 592.58,114.98C593.47,114.6 594.21,113.46 595.09,112.99C595.89,112.56 596.76,112.39 597.6,112.17C598.43,111.95 599.29,111.94 600.11,111.67C600.96,111.39 601.76,110.77 602.62,110.52C603.44,110.28 604.29,110.27 605.13,110.19C605.97,110.11 606.8,110.08 607.64,110.02C608.48,109.97 609.31,109.94 610.15,109.86C610.99,109.78 611.83,109.64 612.67,109.53C613.51,109.42 614.36,109.44 615.18,109.2C616.04,108.95 616.84,108.35 617.69,108.04C618.51,107.74 619.36,107.55 620.2,107.38C621.03,107.22 621.87,107.16 622.71,107.05C623.55,106.94 624.4,106.93 625.22,106.72C626.07,106.5 626.88,105.95 627.73,105.73C628.55,105.52 629.41,105.54 630.24,105.4C631.08,105.26 631.92,105.1 632.75,104.91C633.59,104.72 634.42,104.42 635.26,104.25C636.09,104.09 636.93,104.03 637.77,103.92C638.61,103.81 639.45,103.73 640.29,103.59C641.13,103.45 641.82,103.24 642.8,103.09C644.18,102.89 646.45,102.89 647.82,102.6C648.81,102.39 649.49,102.05 650.33,101.77C651.17,101.5 651.99,101.11 652.84,100.95C653.67,100.79 654.52,100.92 655.35,100.78C656.19,100.64 657.02,100.26 657.86,100.12C658.69,99.99 659.53,100.04 660.37,99.96C661.21,99.88 662.04,99.74 662.88,99.63C663.72,99.52 664.55,99.41 665.39,99.3C666.23,99.19 667.07,99.08 667.91,98.97C668.75,98.86 669.44,98.72 670.42,98.64C671.8,98.53 674.06,98.63 675.44,98.47C676.43,98.36 677.11,98.14 677.95,97.97C678.79,97.81 679.62,97.64 680.46,97.48C681.3,97.31 682.15,97.27 682.97,96.98C683.83,96.68 684.62,95.9 685.48,95.66C686.29,95.43 687.15,95.58 687.99,95.5C688.83,95.42 689.67,95.31 690.5,95.17C691.34,95.03 692.17,94.81 693.01,94.67C693.85,94.53 694.69,94.45 695.53,94.34C696.37,94.23 697.2,94.09 698.04,94.01C698.88,93.93 699.73,94.06 700.55,93.85C701.41,93.63 702.21,93 703.06,92.69C703.88,92.39 704.73,92.22 705.57,92.03C706.4,91.84 707.25,91.73 708.08,91.54C708.92,91.35 709.75,91.1 710.59,90.88C711.43,90.66 712.28,90.52 713.1,90.22C713.95,89.91 714.76,89.37 715.61,89.06C716.43,88.76 717.28,88.54 718.12,88.4C718.95,88.27 719.79,88.29 720.63,88.24C721.47,88.18 722.32,88.21 723.15,88.07C723.99,87.93 724.82,87.58 725.66,87.41C726.49,87.25 727.34,87.27 728.17,87.08C729.02,86.89 729.84,86.53 730.68,86.26C731.52,85.98 732.35,85.71 733.19,85.43C734.03,85.16 734.85,84.77 735.7,84.61C736.53,84.45 737.37,84.52 738.21,84.44C739.05,84.36 739.9,84.32 740.72,84.11C741.57,83.89 742.38,83.31 743.23,83.12C744.05,82.94 744.9,83.04 745.74,82.96C746.58,82.88 747.43,82.84 748.25,82.63C749.1,82.41 749.93,81.96 750.77,81.63C751.61,81.3 752.43,80.86 753.28,80.64C754.1,80.43 754.95,80.42 755.79,80.31C756.63,80.2 757.47,80.12 758.3,79.98C759.14,79.84 759.98,79.68 760.81,79.49C761.65,79.3 762.48,79 763.32,78.83C764.15,78.67 765,78.64 765.83,78.5C766.67,78.36 767.51,78.22 768.34,78C769.18,77.78 770.02,77.48 770.85,77.18C771.69,76.88 772.51,76.41 773.36,76.19C774.19,75.98 775.04,76 775.88,75.86C776.72,75.72 777.55,75.5 778.39,75.36C779.22,75.22 780.06,75.14 780.9,75.03C781.74,74.92 782.57,74.81 783.41,74.7C784.25,74.59 785.09,74.53 785.92,74.37C786.76,74.2 787.59,73.93 788.43,73.71C789.27,73.49 790.1,73.27 790.94,73.05C791.78,72.83 792.61,72.61 793.45,72.39C794.29,72.17 795.12,71.92 795.96,71.73C796.79,71.54 797.63,71.35 798.47,71.24C799.3,71.13 800.15,71.18 800.98,71.07C801.82,70.96 802.67,70.82 803.5,70.58C804.35,70.33 805.16,69.84 806.01,69.59C806.84,69.35 807.68,69.2 808.52,69.09C809.35,68.98 810.2,69.06 811.03,68.93C811.87,68.79 812.7,68.41 813.54,68.27C814.37,68.13 815.21,68.18 816.05,68.1C816.89,68.02 817.75,68.03 818.56,67.77C819.42,67.5 820.24,66.91 821.07,66.45C821.91,65.98 822.72,65.32 823.58,64.96C824.39,64.62 825.25,64.44 826.09,64.3C826.92,64.17 827.76,64.22 828.6,64.14C829.44,64.06 830.28,63.89 831.12,63.81C831.96,63.73 832.79,63.72 833.63,63.64C834.47,63.56 835.31,63.45 836.14,63.31C836.98,63.17 837.82,63.01 838.65,62.82C839.49,62.63 840.32,62.38 841.16,62.16C842,61.94 842.83,61.72 843.67,61.5C844.51,61.28 845.34,61.06 846.18,60.84C847.02,60.62 847.85,60.35 848.69,60.18C849.52,60.02 850.36,59.96 851.2,59.85C852.04,59.74 852.88,59.68 853.71,59.52C854.55,59.35 855.38,59.03 856.22,58.86C857.05,58.7 857.9,58.61 858.74,58.53C859.58,58.45 860.42,58.52 861.25,58.36C862.1,58.2 862.92,57.76 863.76,57.54C864.59,57.32 865.43,57.15 866.27,57.04C867.1,56.93 867.94,56.93 868.78,56.88C869.62,56.82 870.47,56.9 871.29,56.71C872.14,56.52 872.96,56 873.8,55.72C874.63,55.45 875.49,55.38 876.31,55.06C877.17,54.73 877.96,54.04 878.82,53.74C879.64,53.45 880.51,53.54 881.33,53.25C882.19,52.95 882.82,52.25 883.84,51.93C885.2,51.5 887.48,51.45 888.87,51.27C889.85,51.14 890.54,51.05 891.38,50.94C892.22,50.83 893.06,50.75 893.89,50.61C894.73,50.47 895.57,50.3 896.4,50.11C897.24,49.92 898.07,49.62 898.91,49.45C899.74,49.29 900.59,49.26 901.42,49.12C902.26,48.98 903.1,48.81 903.93,48.62C904.77,48.43 905.45,48.17 906.44,47.96C907.82,47.67 910.07,47.3 911.46,47.14C912.44,47.03 913.14,47.03 913.98,46.97C914.82,46.92 915.65,46.86 916.49,46.81C917.33,46.75 918.17,46.8 919,46.64C919.85,46.48 920.67,46.09 921.51,45.82C922.35,45.54 923.17,45.15 924.02,44.99C924.85,44.83 925.69,44.91 926.53,44.83C927.37,44.75 928.2,44.58 929.04,44.5C929.88,44.42 930.72,44.44 931.55,44.33C932.39,44.22 933.22,44 934.06,43.84C934.9,43.67 935.73,43.45 936.57,43.34C937.4,43.23 938.24,43.23 939.08,43.18C939.92,43.12 940.62,43.06 941.6,43.01C942.99,42.94 945.25,43.09 946.62,42.85C947.62,42.67 948.28,42.21 949.13,42.02C949.96,41.83 950.81,41.88 951.64,41.69C952.49,41.5 953.3,41.06 954.15,40.87C954.98,40.68 955.83,40.68 956.66,40.54C957.5,40.4 958.33,40.18 959.17,40.04C960,39.9 960.84,39.79 961.68,39.71C962.52,39.63 963.35,39.63 964.19,39.55C965.03,39.47 965.87,39.33 966.71,39.22C967.55,39.11 968.39,39.05 969.22,38.89C970.06,38.72 970.74,38.39 971.73,38.23C973.11,38.01 975.37,38.04 976.75,37.9C977.73,37.8 978.44,37.78 979.26,37.57C980.11,37.35 980.92,36.83 981.77,36.58C982.6,36.34 983.44,36.22 984.28,36.08C985.11,35.94 985.96,35.91 986.79,35.75C987.63,35.58 988.46,35.23 989.3,35.09C990.13,34.96 990.98,35.06 991.81,34.93C992.66,34.79 993.49,34.49 994.33,34.27C995.17,34.05 996,33.83 996.84,33.61C997.68,33.39 998.51,33.11 999.35,32.94C1000.18,32.78 1001.02,32.72 1001.86,32.61C1002.7,32.5 1003.53,32.39 1004.37,32.28C1005.21,32.17 1006.04,32.06 1006.88,31.95C1007.72,31.84 1008.17,31.71 1009.39,31.62C1012.6,31.4 1023.76,31.58 1026.97,31.46C1028.19,31.41 1028.66,31.48 1029.48,31.29C1030.33,31.1 1031.15,30.63 1031.99,30.3Q1032.83,29.97 1034.5,29.31" style="vector-effect: none; fill: none; stroke: rgb(35, 134, 54); stroke-opacity: 1; stroke-width: 4px; opacity: 1;"/></g><g class="points"/><g class="text"/></g></g></g></g><g class="zerolinelayer-above"/><path class="xlines-above crisp" d="M79,570.5H1150" style="fill: none; stroke-width: 1px; stroke: rgb(208, 215, 222); stroke-opacity: 1;"/><path class="ylines-above crisp" d="M79.5,100V570" style="fill: none; stroke-width: 1px; stroke: rgb(208, 215, 222); stroke-opacity: 1;"/><g class="overlines-above"/><g class="xaxislayer-above"><g class="xtick"><text text-anchor="middle" x="0" y="586.6" transform="translate(167.88,0)" style="font-family: 'Segoe UI', Arial, sans-serif; font-size: 13px; fill: rgb(36, 41, 47); fill-opacity: 1; white-space: pre;">Jul 2025</text></g><g class="xtick"><text text-anchor="middle" x="0" y="586.6" style="font-family: 'Segoe UI', Arial, sans-serif; font-size: 13px; fill: rgb(36, 41, 47); fill-opacity: 1; white-space: pre;" transform="translate(323.56,0)">Sep 2025</text></g><g class="xtick"><text text-anchor="middle" x="0" y="586.6" style="font-family: 'Segoe UI', Arial, sans-serif; font-size: 13px; fill: rgb(36, 41, 47); fill-opacity: 1; white-space: pre;" transform="translate(476.73,0)">Nov 2025</text></g><g class="xtick"><text text-anchor="middle" x="0" y="586.6" style="font-family: 'Segoe UI', Arial, sans-serif; font-size: 13px; fill: rgb(36, 41, 47); fill-opacity: 1; white-space: pre;" transform="translate(629.89,0)">Jan 2026</text></g><g class="xtick"><text text-anchor="middle" x="0" y="586.6" style="font-family: 'Segoe UI', Arial, sans-serif; font-size: 13px; fill: rgb(36, 41, 47); fill-opacity: 1; white-space: pre;" transform="translate(778.04,0)">Mar 2026</text></g><g class="xtick"><text text-anchor="middle" x="0" y="586.6" style="font-family: 'Segoe UI', Arial, sans-serif; font-size: 13px; fill: rgb(36, 41, 47); fill-opacity: 1; white-space: pre;" transform="translate(931.2,0)">May 2026</text></g><g class="xtick"><text text-anchor="middle" x="0" y="586.6" style="font-family: 'Segoe UI', Arial, sans-serif; font-size: 13px; fill: rgb(36, 41, 47); fill-opacity: 1; white-space: pre;" transform="translate(1084.37,0)">Jul 2026</text></g></g><g class="yaxislayer-above"><g class="ytick"><text text-anchor="end" x="76.4" y="4.55" transform="translate(0,570)" style="font-family: 'Segoe UI', Arial, sans-serif; font-size: 13px; fill: rgb(36, 41, 47); fill-opacity: 1; white-space: pre;">0</text></g><g class="ytick"><text text-anchor="end" x="76.4" y="4.55" style="font-family: 'Segoe UI', Arial, sans-serif; font-size: 13px; fill: rgb(36, 41, 47); fill-opacity: 1; white-space: pre;" transform="translate(0,487.47)">500</text></g><g class="ytick"><text text-anchor="end" x="76.4" y="4.55" style="font-family: 'Segoe UI', Arial, sans-serif; font-size: 13px; fill: rgb(36, 41, 47); fill-opacity: 1; white-space: pre;" transform="translate(0,404.95)">1000</text></g><g class="ytick"><text text-anchor="end" x="76.4" y="4.55" style="font-family: 'Segoe UI', Arial, sans-serif; font-size: 13px; fill: rgb(36, 41, 47); fill-opacity: 1; white-space: pre;" transform="translate(0,322.41999999999996)">1500</text></g><g class="ytick"><text text-anchor="end" x="76.4" y="4.55" style="font-family: 'Segoe UI', Arial, sans-serif; font-size: 13px; fill: rgb(36, 41, 47); fill-opacity: 1; white-space: pre;" transform="translate(0,239.9)">2000</text></g><g class="ytick"><text text-anchor="end" x="76.4" y="4.55" style="font-family: 'Segoe UI', Arial, sans-serif; font-size: 13px; fill: rgb(36, 41, 47); fill-opacity: 1; white-space: pre;" transform="translate(0,157.37)">2500</text></g></g><g class="overaxes-above"/></g></g><g class="polarlayer"/><g class="smithlayer"/><g class="ternarylayer"/><g class="geolayer"/><g class="funnelarealayer"/><g class="pielayer"/><g class="iciclelayer"/><g class="treemaplayer"/><g class="sunburstlayer"/><g class="glimages"/><defs id="topdefs-33f1e1"><g class="clips"/></defs><g class="layer-above"><g class="imagelayer"/><g class="shapelayer"/></g><g class="infolayer"><g class="g-gtitle"><text class="gtitle" x="600" y="26" text-anchor="middle" dy="0.7em" style="opacity: 1; font-family: 'Arial Black'; font-size: 30px; fill: rgb(36, 41, 47); fill-opacity: 1; white-space: pre;">sky22333/hubproxy Star 增长趋势</text></g><g class="g-xtitle"><text class="xtitle" x="615" y="613.899609375" text-anchor="middle" style="opacity: 1; font-family: 'Segoe UI', Arial, sans-serif; font-size: 14px; fill: rgb(36, 41, 47); fill-opacity: 1; white-space: pre;">日期</text></g><g class="g-ytitle"><text class="ytitle" transform="rotate(-90,28.078515625,335)" x="28.078515625" y="335" text-anchor="middle" style="opacity: 1; font-family: 'Segoe UI', Arial, sans-serif; font-size: 14px; fill: rgb(36, 41, 47); fill-opacity: 1; white-space: pre;">累计 Star 数</text></g><g class="annotation" data-index="0" style="opacity: 1;"><g class="annotation-text-g" transform="rotate(0,1114.5,120.5)"><g class="cursor-pointer" transform="translate(1079,100)"><rect class="bg" x="1" y="1" width="69" height="39" style="stroke-width: 2px; stroke: rgb(35, 134, 54); stroke-opacity: 1; fill: rgb(255, 255, 255); fill-opacity: 0.9;"/><text class="annotation-text" text-anchor="middle" x="35.53125" y="28" style="font-family: 'Segoe UI', Arial, sans-serif; font-size: 22px; fill: rgb(35, 134, 54); fill-opacity: 1; white-space: pre;"><tspan style="font-weight:bold">2,670</tspan></text></g></g></g></g></svg>